<?xml version="1.0" encoding="utf-8"?>
<!-- Svg Vector Icons : http://www.onlinewebfonts.com/icon -->
<!DOCTYPE svg PUBLIC "-//W3C//DTD SVG 1.1//EN" "http://www.w3.org/Graphics/SVG/1.1/DTD/svg11.dtd">
<svg version="1.1" xmlns="http://www.w3.org/2000/svg" xmlns:xlink="http://www.w3.org/1999/xlink" x="0px" y="0px" viewBox="0 0 256 256" enable-background="new 0 0 256 256" xml:space="preserve">
<metadata> Svg Vector Icons : http://www.onlinewebfonts.com/icon </metadata>
<g><g><g><path fill="#000000" d="M144.1,10.6c-3,0.2-19.1,1.7-35.9,3.2c-16.8,1.6-34.7,3.1-39.7,3.3c-5.1,0.3-9.3,0.7-9.5,0.8c-0.2,0.2-0.3,11.7-0.2,25.6c0.1,14-0.2,38.1-0.7,53.6c-0.4,15.5-0.9,37.3-1.1,48.4l-0.4,20.2l3.1,21.3c2.6,17.4,6.3,48,6.3,51.9c0,0.8,0.6,0.9,3.8,1.1l3.8,0.2l1.8-3.8c1-2.1,2.3-5.5,2.9-7.4c0.7-2,1.2-3.7,1.3-3.8c0.1-0.1,1.2,0.1,2.5,0.5l2.4,0.7l3.3,6.6c1.8,3.6,3.3,7,3.3,7.6c0,0.6-1.1,1.7-2.9,3c-2.6,1.8-2.7,2.1-1.6,2.4c2.9,0.8,5.1,0.3,10.8-2.4l5.8-2.8l-0.7-8.6c-0.4-4.7-0.7-8.6-0.8-8.7c-1.3-0.8-5.3-4.1-7-5.6l-2.2-2.1v-4.3c0-2.4,0.2-4.3,0.4-4.3c0.3,0,4.6-0.6,9.6-1.3c7.5-1.1,49.8-6,72.5-8.5c3-0.3,9.6-0.7,14.7-0.9l9.3-0.3l-1-2.6c-0.7-1.9-1.4-2.8-2.8-3.5c-2.7-1.4-3-2.4-2-5.4c1.4-4.2,0.7-12.1-1.6-18.8l-1.8-5.3l0.8-5.5c0.5-3.4,1.5-7.4,2.6-10.4c1.2-3.1,1.8-5.8,1.8-7.3c0-2.4-0.1-2.5-2.3-3.4c-2.3-0.9-2.3-1-2.6-4.2c-0.5-3.8-0.7-4.3-3.8-8.4c-2-2.5-2.8-4.4-4.8-10.3c-1.3-3.9-3.1-10.6-3.9-14.7c-0.9-4.2-2.3-9.5-3.1-12.1c-0.8-2.5-3.5-12.6-5.8-22.4c-4-16.5-4.6-18.5-8.1-26.7c-4.2-9.7-5.2-13.7-5.2-20.5V10l-3.1,0.1C150.8,10.1,147,10.4,144.1,10.6z"/></g></g></g>
</svg>