<?xml version="1.0" encoding="utf-8"?>
<!-- Svg Vector Icons : http://www.onlinewebfonts.com/icon -->
<!DOCTYPE svg PUBLIC "-//W3C//DTD SVG 1.1//EN" "http://www.w3.org/Graphics/SVG/1.1/DTD/svg11.dtd">
<svg version="1.1" xmlns="http://www.w3.org/2000/svg" xmlns:xlink="http://www.w3.org/1999/xlink" x="0px" y="0px" viewBox="0 0 256 256" enable-background="new 0 0 256 256" xml:space="preserve">
<metadata> Svg Vector Icons : http://www.onlinewebfonts.com/icon </metadata>
<g><g><g><path fill="#000000" d="M126,41.6c-0.9,1.1-1.6,1.5-3.8,1.7c-1.6,0.2-3,0.1-3.6-0.3c-0.8-0.5-1.5-0.3-4.2,1c-3.2,1.7-4.8,2-6.1,1.2c-1.1-0.7-5,2.1-5.4,3.8c-0.2,0.8-1.3,2.4-2.5,3.7l-2.2,2.4l-5.3-0.4c-4.8-0.3-5.5-0.3-7,0.7l-1.7,1.1l2.4,4c4,6.6,4.4,7.7,4.4,10.6c0,2.7,0,2.9,2,4c1.3,0.8,1.8,1.4,1.5,1.7c-0.6,0.6,0.2,3.3,2.1,6.9c1.1,2.2,0.9,3-0.8,3.1c-0.9,0-5.6-1.7-7.2-2.7c-1.7-1-1.8-2.3-0.4-3.5c1-0.8,0.9-1.5-0.2-2.3c-1-0.8-3-0.9-5.9-0.4c-1.5,0.3-2,0.6-2,1.4c0,0.8-0.2,0.9-0.8,0.4c-0.8-0.7-9.8-0.6-10.9,0.2c-0.9,0.5,0.9,4.3,2.8,5.8c1.2,1,1.2,1.2,0.7,3.1c-1.1,3.8-0.8,5.4,1.4,7.6c1.7,1.7,2.3,1.9,4.6,1.9c1.7,0,3.6,0.5,5.6,1.4l3,1.3l3.6-0.9c3.4-0.9,3.6-0.9,4.3,0.1c0.6,0.8,0.5,1-0.1,1.7c-0.4,0.5-1.1,2.7-1.6,4.9c-1.1,5.6-2.8,6.9-6.4,5c-1.5-0.7-1.6-0.7-3.7,0.8c-2.7,2-4.5,2.1-4.5,0.3c0-1-0.4-1.5-1.6-2c-2.3-1-4.6,0.2-5.8,2.8c-0.6,1.4-2,2.7-4.5,4.4c-4.8,3.3-4.9,3.4-5.3,6.5c-0.4,3.5,0.4,5.8,1.8,5.3c1-0.3,1.4,0.5,0.5,1c-0.3,0.2-0.5,0.9-0.5,1.6c0,0.9-0.4,1.4-1.3,1.7c-1.6,0.6-1.6,1.1-0.1,3.5c0.7,1.1,1.4,3,1.6,4.4c0.3,1.5,0.7,2.6,1.3,2.9c1.4,0.8,8,0.7,8.3-0.2c0.5-1.4,1.3,0.5,1.5,3.8c0.3,3.3,0.3,3.4-1.2,4c-1.2,0.5-1.4,0.8-1,1.8c0.6,1.4,0.2,3.7-0.8,4.5c-0.4,0.3-0.7,0.8-0.7,1c0,0.6,2.4,0.6,3.5,0c0.5-0.2,2-0.6,3.3-0.7c2.1-0.3,2.5-0.2,2.8,0.6c0.7,1.9,1.3,2.3,2.2,1.4c0.8-0.8,0.9-0.7,1.2,0.6c1.1,4.4,1.4,5.3,2.1,5.3c0.5,0,0.8-0.5,0.8-1.4c0-2.5,2.8-3.9,3.2-1.5c0.2,1.5,1.9,1.8,4.1,0.7c0.9-0.5,1.7-0.8,1.8-0.8c0.5,0-0.5,2.8-1.3,3.6c-0.4,0.4-1.8,2.8-3.2,5.3c-2.3,4.2-2.7,4.7-4.7,5.4c-1.9,0.7-2.4,1.2-3,3c-0.6,1.7-0.9,2.1-1.7,1.9c-0.5-0.2-2.7,0.1-4.8,0.6c-3.3,0.8-4.3,1.2-6,2.9c-1.9,1.9-2.1,2-2.9,1.2c-1.7-1.5-8.8-0.3-11.3,2c-2.3,2.2-5.4,3-9.4,2.5c-5.3-0.7-8.6,1.2-6.3,3.5c1,1,1.1,1,2.6,0.2c1.4-0.9,1.7-0.9,4.5-0.1c3,0.9,3,0.9,5.2-0.4c1.2-0.7,3-1.3,4.1-1.3c1.1,0,2.5-0.5,3.4-1.1c1.4-1,1.6-1,3.4-0.4c1.7,0.7,2.2,0.7,4.4-0.1c5.2-1.8,5-1.8,4.6-0.3c-0.4,1.7,0.7,1.8,1.4,0.1c0.5-1.1,0.9-1.3,2.8-1.3c1.2,0,2.7,0.2,3.2,0.5c0.7,0.4,1.2,0.2,2.1-1.1c1.1-1.5,1.1-1.6,0.3-2.2c-0.8-0.6-0.7-0.8,1.6-1.8c1.4-0.7,4.1-1.5,6-2c5.7-1.3,20.5-9.8,23.7-13.6c0.8-0.9,1.3-2,1.1-2.4c-0.2-0.4-0.3-0.9-0.3-1.2c0-0.2-0.7-0.7-1.5-1c-1.1-0.4-1.4-0.9-1.2-1.6c0.4-1.4,3.7-3.9,6.2-4.6c1.6-0.5,2.5-1.1,3-2.2c3.5-6.9,9-11.4,13.1-10.8c1.8,0.3,3,1.3,3,2.7c0,0.9-2.1,0.7-3.1-0.3c-0.9-0.8-1.1-0.7-3.1,0.4c-1.7,0.9-2.3,1.5-2.5,3c-0.2,1-1,3.1-1.9,4.6c-2,3.3-2,4-0.5,4.2c0.6,0.1,1.2,0.5,1.3,0.8c0.2,0.7-0.2,0.9-2.6,1.4c-1.1,0.2-1.4,0.6-1.3,1.4c0.2,1,0.5,1.1,2.8,1.3c2.1,0.1,3.1-0.1,4.6-1.1c1.1-0.7,2.3-1.6,2.7-2.1c0.4-0.5,1.6-1.5,2.7-2.4l2-1.6l1.5,1.1c1.2,0.9,1.8,1,2.3,0.6c1-0.8,2.2-0.2,2.6,1.3c0.5,1.7,1.3,1.5,3.9-1c1.7-1.8,2.2-2.5,1.9-3.4l-0.4-1.1l-1.4,1.3c-1.9,1.8-2.2,1.7-1.3-0.7c0.5-1.3,0.5-2.2,0.2-2.4c-0.6-0.4-0.6-0.4-1.3,1.3l-0.6,1.3v-1.3c-0.1-0.7-0.2-1.8-0.4-2.4c-0.3-0.9,0.1-1.2,1.4-1.7c0.9-0.4,2.8-0.8,4.1-1l2.4-0.4l1.5,3c1.1,2.4,1.8,3.2,3.2,3.9c1,0.4,3.1,1.5,4.6,2.4c2.6,1.5,3.1,1.6,6.2,1.4c2.9-0.3,3.9-0.1,7.7,1.5c2.4,1,5,1.9,5.8,2.1c1.6,0.4,4-0.4,5.7-1.7c0.9-0.8,0.9-0.8,0.7,0.7c-0.2,0.8-0.5,2.1-0.6,2.8c-0.3,1.4-0.4,1.4,5.9,4.8c1.5,0.9,4.4,3,6.4,4.8c3.3,3.1,3.6,3.2,5.7,2.9l2.1-0.3l-1.4,0.8c-1.7,0.9-1.9,2.9-0.5,4c1.3,1,3.2,4.2,3.2,5.5c0,1.6,0.9,3.1,2,3.1c0.6,0,1.7,1.4,3.1,3.8c3,5.2,3.6,5.3,3.3,0.7c-0.3-4.6,0.4-4.1,1.6,1.3c1,4.3,2,4.9,2.6,1.7c0.6-2.9,1.3-2.6,1.3,0.6c0,2,0.3,3.2,0.9,3.9c0.8,0.9,0.8,1-0.1,2c-0.8,0.8-0.8,1.1-0.3,1.8c0.4,0.5,1,0.7,1.3,0.6c0.4-0.2,1.1,0.6,1.7,1.9c1.7,3.3,2.8,4.7,3.8,4.3c0.7-0.3,0.7-0.5-0.3-2.2c-1.3-2.2-0.6-2.3,1.7-0.3c1,0.8,2.1,1.5,2.4,1.5c0.9,0,0.7-4.4-0.2-6.2c-1.2-2.4-0.5-2.7,2.5-1c1.7,1,3,2.2,3.6,3.3c0.5,1,1.3,2,1.7,2.2c1.2,0.5,3.1-2.2,3.5-4.8c0.3-2-0.6-8.2-1.3-9.3c-0.2-0.3-2.7-1.4-5.7-2.5c-5.2-2.1-5.4-2.2-6.7-4.6c-0.7-1.3-2.4-3.9-3.7-5.6s-3.3-4.8-4.5-6.8c-1.8-3.1-2.6-3.9-4.4-4.7c-1.2-0.5-2.4-1.4-2.6-2c-0.2-0.6-0.9-1.5-1.6-2.1c-0.7-0.6-1.5-1.8-1.8-2.7c-0.3-1-1.1-2.1-2.2-2.8c-1.6-1.1-1.7-1.1-2.9-0.2c-0.7,0.6-1.5,1-1.9,1c-1,0-2.3,2.1-2.3,3.7c0,1.1-0.5,1.6-2.3,2.7l-2.3,1.3l-0.4-1.4c-0.2-0.7-2.2-3.2-4.4-5.5c-3.1-3.2-4.1-4.5-4.1-5.6c0-1.3-0.1-1.4-1.9-1.1c-4.8,0.8-5.8,0.9-6.8,0.3l-1.2-0.6l0.3-48.3l0.3-48.3l-2.2-1.5c-1.2-0.9-3.5-2.1-5.2-2.8c-2.9-1.3-3-1.3-5.3-0.5c-2.3,0.9-2.4,0.9-5.1-0.5c-1.7-0.9-3.1-1.2-3.9-1c-0.9,0.2-2.2-0.3-4.7-2c-3.1-2.1-4-2.4-7.4-2.6c-4.7-0.4-6.2-1.2-6.2-3.5c0-0.9-0.3-2-0.6-2.3c-0.9-0.9-4.3-0.8-5,0.2c-0.8,1-1.7,0.5-1.4-0.8c0.4-1.5-4.5-5.7-6.6-5.7C127.5,40.2,126.6,40.8,126,41.6z"/><path fill="#000000" d="M44.3,92.3c-1.4,1.8-1,4.4,0.7,4.4c2.1,0,3,0.8,4.2,3.6c1,2.4,1.2,2.6,2.9,2.6c2,0,2,0.1,0.2-4.6c-0.7-1.7-1.2-2.4-2.3-2.6c-1.7-0.5-2.8-1.3-3.9-3.2L45.2,91L44.3,92.3z"/><path fill="#000000" d="M24.1,119.1c0,1.6,1.8,4.4,2.8,4c0.5-0.2,0.4-0.9-0.7-2.8C24.7,117.5,24.1,117.1,24.1,119.1z"/><path fill="#000000" d="M48.7,135.5c0,2.3,3.2,5.5,5.6,5.5c1.3,0,1.8-0.3,2.4-1.5c1.5-3,1.1-3.4-4.9-4.8l-3.1-0.7L48.7,135.5L48.7,135.5z"/><path fill="#000000" d="M153.3,157.2c-0.7,0.3-0.9,2.7-0.3,2.7c1,0,2.3-1.4,2-2.3C154.6,156.8,154.3,156.7,153.3,157.2z"/><path fill="#000000" d="M115.3,175.4c-2.3,1.7-5.3,3.8-6.7,4.6c-3.7,2.1-3.8,2.3-3.1,6c0.5,3,0.7,3.2,2.3,3.7c1.6,0.5,2.2,0.3,6.6-2.4c2.6-1.5,5-3,5.1-3.3c0.2-0.3-0.1-1-0.5-1.7c-0.4-0.7-0.6-1.7-0.5-2.4c0.3-1,0.2-1.1-0.7-0.8c-1.1,0.5-3.8,0.5-4.3,0c-0.6-0.6,1.2-1.3,2.6-1c1.6,0.3,5.6-1.5,5.6-2.6c0-0.4-0.5-0.9-1.1-1c-0.7-0.3-1-0.7-0.8-1.3c0.2-0.5,0.1-1-0.1-1C119.6,172.3,117.6,173.7,115.3,175.4z"/><path fill="#000000" d="M66.1,194.9c-0.7,0.4-0.8,0.7-0.4,1.5c0.7,1.2,1,1.2,2.3,0.3c0.8-0.6,0.9-0.8,0.3-1.5C67.5,194.2,67.3,194.2,66.1,194.9z"/><path fill="#000000" d="M26.1,195.3c-0.7,0.2-1.2,0.7-1.1,1.1c0.2,0.9-2,3.1-3,3.1c-0.5,0-1.2-0.5-1.5-1c-0.3-0.6-1.1-1.2-1.8-1.3c-1.6-0.4-5.7,1-7.7,2.5c-2.1,1.7-0.8,2.1,3,0.8c3-0.9,3.2-0.9,6.7-0.1c3.3,0.8,4,0.8,6.4,0.2c3.7-1,4.3-2,2.3-4.1c-0.8-0.8-1.6-1.5-1.7-1.5C27.6,195,26.8,195.1,26.1,195.3z"/><path fill="#000000" d="M95.9,196c-0.8,0.6-0.8,0.8-0.2,1.7c1,1.4,2.3,0.3,1.5-1.3C96.9,195.5,96.7,195.5,95.9,196z"/><path fill="#000000" d="M68.9,197.7c-0.6,1.2-0.5,1.3,0.7,1.3c1.2,0,2.6-1.6,2-2.3C70.8,196,69.4,196.5,68.9,197.7z"/></g></g></g>
</svg>