<?xml version="1.0" encoding="utf-8"?>
<!-- Svg Vector Icons : http://www.onlinewebfonts.com/icon -->
<!DOCTYPE svg PUBLIC "-//W3C//DTD SVG 1.1//EN" "http://www.w3.org/Graphics/SVG/1.1/DTD/svg11.dtd">
<svg version="1.1" xmlns="http://www.w3.org/2000/svg" xmlns:xlink="http://www.w3.org/1999/xlink" x="0px" y="0px" viewBox="0 0 256 256" enable-background="new 0 0 256 256" xml:space="preserve">
<metadata> Svg Vector Icons : http://www.onlinewebfonts.com/icon </metadata>
<g><g><g><path fill="#000000" d="M82.8,10.6c0,0.3-1.1,7.2-2.4,15.2c-2.3,14.2-2.4,14.7-4.2,17.4c-1.7,2.6-2,2.7-4.1,2.7c-2.2,0-2.3-0.1-3.1-2.1c-0.9-2.3-2-3.1-4.2-3.1c-0.8,0-1.9-0.5-2.4-1c-1.2-1.3-2.2-1.3-5,0.3l-2.3,1.3L55,49.4c-0.2,4.4-0.6,12.6-0.9,18.2C53.6,77,53.4,78,52.3,79.7c-0.7,1.1-1.4,3.1-1.7,4.6C50,87,50,87,52.5,91.5c1.9,3.4,2.7,5.6,3.4,9.3c0.8,4.1,1.2,5.1,2.6,6.4c1.3,1.3,1.6,1.9,1.4,3.4c-0.3,2.1-1.3,3-5.8,5.3c-1.8,1-3.9,2.4-4.7,3.2c-2,2.1-3.8,7-4.5,12c-0.6,4.2-0.7,4.4-2.9,6.7c-1.3,1.3-3.1,2.6-3.9,2.9l-1.6,0.5l-0.6,6.6c-0.4,3.6-0.5,6.9-0.4,7.3c0.2,0.4,1.6,0.8,3.3,1l3.1,0.4l-0.3,2.2c-0.2,1.2-0.9,3.2-1.6,4.3c-1.3,2-1.8,2.3-6.4,3.3c-0.7,0.2-2.3,1.1-3.6,2.1c-2.3,1.8-3.3,4-2.6,5.3c0.2,0.4,7.7,4.8,16.6,9.9c8.9,5,20.8,12.1,26.6,15.6c5.7,3.6,16,9.8,22.8,13.7c6.8,4,18.9,11.1,26.9,15.9l14.5,8.7l10.1,2.1c7.3,1.5,15.9,2.7,31,4.3c11.5,1.3,21.5,2.3,22.1,2.3c2.4,0,5.4-19.6,18.8-121.1c3.4-25.8,7.5-56.6,9.2-68.5c1.6-11.9,3-21.6,2.9-21.7c-0.1,0-9.5-1.5-21.1-3.2c-28.6-4.3-66.6-10.8-97.7-16.6C95.8,12.2,83.9,10,83.5,10S82.8,10.3,82.8,10.6z"/></g></g></g>
</svg>