<?xml version="1.0" encoding="utf-8"?>
<!-- Svg Vector Icons : http://www.onlinewebfonts.com/icon -->
<!DOCTYPE svg PUBLIC "-//W3C//DTD SVG 1.1//EN" "http://www.w3.org/Graphics/SVG/1.1/DTD/svg11.dtd">
<svg version="1.1" xmlns="http://www.w3.org/2000/svg" xmlns:xlink="http://www.w3.org/1999/xlink" x="0px" y="0px" viewBox="0 0 256 256" enable-background="new 0 0 256 256" xml:space="preserve">
<metadata> Svg Vector Icons : http://www.onlinewebfonts.com/icon </metadata>
<g><g><g><path fill="#000000" d="M177.3,22c-40.3,1.8-92.5,3.5-138.6,4.4C23,26.7,10.1,27,10,27.1c-0.1,0.1,0.8,4.3,2,9.2l2.1,9v11.4c0,10.2,0.2,13,2.1,27.6l2.1,16.2l0.1,39.3c0.1,21.6,0.2,44.7,0.4,51.3l0.3,12l3,2.6l2.9,2.6l4.1-1.9l4.1-1.9l3.9,1.6l3.8,1.6L41,217c0.2,5.1,0.5,11.5,0.7,14.1l0.3,4.8h29.6c23.3,0,35.8-0.3,58.6-1.3c16-0.7,32.4-1.3,36.5-1.3s9.9-0.2,12.9-0.3l5.3-0.4l1.4-2.7c1.4-2.7,1.4-3,1.1-7.6c-0.3-4.7-0.5-5-2.8-8.9l-2.5-4l2.2-2.2c2-2,2.1-2.3,1.4-3.3c-0.4-0.6-1.3-2.2-2.1-3.4l-1.4-2.3l2.8-11c3-12,2.6-11.1,7.6-15.2l2.1-1.6l-0.9-3.2l-0.9-3.2l5-7.4c5-7.4,5-7.4,8.8-9.2c4.2-2.1,4.1-1.9,3.1-7.8l-0.6-3.5l4-7.6l4-7.7l3.2-1.7c3.1-1.7,3.1-1.7,3.5-4.4c0.9-7.1,0.7-6.7,3.3-8.4l2.4-1.7l1.1-5.8l1.1-5.8l-1.8-5.5c-1-3-1.8-5.5-1.7-5.6c0.1-0.1,2.6-1.5,5.6-3.3l5.4-3.1l3.2-11.4c4.1-14.6,4.2-15,2.9-14.6c-0.5,0.2-2.9,0.7-5.3,1.3c-4,1-4.9,1-12.6,0.5c-4.6-0.3-8.4-0.7-8.4-0.7c-0.1-0.1,0.2-2,0.7-4.2l0.9-4l4.5-3.8c4.4-3.7,4.5-3.8,5-6.9l0.6-3.1l-2.4-4l-2.4-4.1l-5.4,0C217.4,20.3,198,21.1,177.3,22z"/></g></g></g>
</svg>