<?xml version="1.0" encoding="utf-8"?>
<!-- Svg Vector Icons : http://www.onlinewebfonts.com/icon -->
<!DOCTYPE svg PUBLIC "-//W3C//DTD SVG 1.1//EN" "http://www.w3.org/Graphics/SVG/1.1/DTD/svg11.dtd">
<svg version="1.1" xmlns="http://www.w3.org/2000/svg" xmlns:xlink="http://www.w3.org/1999/xlink" x="0px" y="0px" viewBox="0 0 256 256" enable-background="new 0 0 256 256" xml:space="preserve">
<metadata> Svg Vector Icons : http://www.onlinewebfonts.com/icon </metadata>
<g><g><g><path fill="#000000" d="M72.4,12.4c-0.5,1.3-0.8,4-0.8,5.9c0,3-0.3,4.2-2.6,9.4c-1.7,3.8-3.2,6.4-4.1,7.2c-0.8,0.7-1.5,1.5-1.5,1.8c0,0.3-0.5,0.6-1,0.8c-0.7,0.2-1.4,1.4-2.1,3.4c-1.3,4-1.3,4.4,0.2,6.6c3.5,5.1,4.9,13.5,2.9,17.4c-0.5,1-1.1,3.2-1.3,4.7c-0.2,1.5-0.6,3.7-0.8,4.8c-0.5,1.8-0.3,2.3,2.6,7.8c2.8,5.2,5.3,11.2,4.9,11.7c-0.1,0-0.3,1.2-0.5,2.6c-0.4,2.3-0.3,2.4,2.5,5.5c1.5,1.8,2.8,3.5,2.8,3.9c0,0.3-0.4,1.7-0.8,3.1c-0.4,1.4-0.8,4.5-0.8,6.9c0,4.2,0.1,4.5,2,7.3c1.4,2.2,2.3,3.1,3.3,3.3c3.1,0.6,2.9,6-0.4,7.5c-1.4,0.7-1.8,1.2-2.1,2.8c-0.4,2.5,0.3,4.7,2,6.9c0.7,1,2.3,4.5,3.3,8c1.2,3.8,3,7.9,4.6,10.5c1.4,2.4,2.7,5,2.9,5.9c0.2,0.9,0.7,1.8,1.1,2.2c1,0.8,0.9,2-0.8,8.1l-1.5,5.3l1,1.4c0.8,1.1,1.7,1.5,4.2,2c1.7,0.3,4.7,1.3,6.6,2.4c2,1,4.3,1.8,5.1,1.8c1.7,0,3.6,2.3,6.1,7.2c1.3,2.5,1.8,3,4.1,4c1.4,0.6,3.1,1.1,3.9,1.1c2.5,0,4.7,3.7,3.4,5.8c-0.9,1.4-0.4,1.8,2.8,2.2c2.5,0.4,2.9,0.6,4,2.3c0.6,1,2.3,3.2,3.6,4.8c1.3,1.6,2.5,3.2,2.5,3.4c0,0.3,0.7,1.6,1.5,2.9c1.5,2.4,1.5,2.6,1.5,8.9c0,4.6,0.2,6.7,0.7,7c0.3,0.3,7.5,1.4,16.1,2.6c11.6,1.6,17.3,2.2,23.1,2.3l7.7,0.1l1.2-1.8l1.2-1.8l-1.5-0.2c-2.4-0.3-2.7-0.8-2.3-5.4l0.3-4.2l2.5-2.2c2.2-2,2.5-2.5,2.5-4.3c0-2.3,1.1-5.3,2.4-6.8c0.5-0.5,2-1.5,3.3-2.3c1.3-0.8,2.6-1.6,2.7-2c0.2-0.3-0.2-1.4-0.8-2.5c-0.5-1.1-1-2.6-1-3.3s-0.7-2.8-1.5-4.5c-0.9-1.8-1.5-3.9-1.5-4.5c0-1.2-12.5-21-24.4-38.5c-3.4-5.1-12.6-18.6-20.4-30c-7.8-11.5-16.9-25.1-20.3-30.3l-6.2-9.5l2.5-9.5c1.3-5.2,5-19.4,8.2-31.5c3.1-12.1,5.6-22.3,5.5-22.6c-0.2-0.3-5.4-2-11.7-3.5c-6.3-1.6-15.9-4.4-21.3-6c-5.3-1.6-12.9-3.9-16.7-4.8c-3.8-1-8.3-2.3-10-2.9c-1.7-0.6-3.2-1-3.4-1C73.4,10,72.9,11.1,72.4,12.4z"/><path fill="#000000" d="M95.9,197.3c-0.5,1.3,2.1,3.2,4.5,3.2c1.1,0,2.1-0.2,2.2-0.4c0.2-0.2-1.2-1.1-3.1-2C96.7,196.7,96.1,196.6,95.9,197.3z"/><path fill="#000000" d="M90.6,197.9c0,1.4,0.7,2.1,2.4,2.1c1.8,0,2.3-0.8,1.1-2C93.4,197.4,90.6,197.3,90.6,197.9z"/><path fill="#000000" d="M115.8,216.1c0,1.1,3.3,4.7,4,4.3c1-0.6,0.7-1.8-1-3.4C116.9,215.3,115.8,215,115.8,216.1z"/><path fill="#000000" d="M113.9,227.3c0.4,2.1,1.7,3.6,2.7,3.2c0.6-0.2,0.5-0.7-0.6-2.4C114.4,225.3,113.4,225,113.9,227.3z"/></g></g></g>
</svg>