<?xml version="1.0" encoding="utf-8"?>
<!-- Svg Vector Icons : http://www.onlinewebfonts.com/icon -->
<!DOCTYPE svg PUBLIC "-//W3C//DTD SVG 1.1//EN" "http://www.w3.org/Graphics/SVG/1.1/DTD/svg11.dtd">
<svg version="1.1" xmlns="http://www.w3.org/2000/svg" xmlns:xlink="http://www.w3.org/1999/xlink" x="0px" y="0px" viewBox="0 0 256 256" enable-background="new 0 0 256 256" xml:space="preserve">
<metadata> Svg Vector Icons : http://www.onlinewebfonts.com/icon </metadata>
<g><g><g><path fill="#000000" d="M31,35.8c0,2-5.8,48.2-8,62.9C19.2,126.1,10,194.4,10,196.2c0,1.3,0.2,1.6,1.6,1.8c0.9,0.2,19.2,2.2,40.7,4.6c21.5,2.4,51.3,5.7,66.2,7.4c43.6,4.9,83.3,8.7,100.7,9.6c8.8,0.5,16.1,0.7,16.3,0.6c0.1-0.2,2.1-29,4.3-64.1c2.3-35.2,4.6-71.3,5.2-80.5c0.6-9.1,1-16.7,0.9-16.8c-0.2-0.2-13.5-1.5-29.7-3.1c-30.8-3-138.1-14.7-166.7-18.2C32.8,35.6,31,35.4,31,35.8z"/></g></g></g>
</svg>