<?xml version="1.0" encoding="utf-8"?>
<!-- Svg Vector Icons : http://www.onlinewebfonts.com/icon -->
<!DOCTYPE svg PUBLIC "-//W3C//DTD SVG 1.1//EN" "http://www.w3.org/Graphics/SVG/1.1/DTD/svg11.dtd">
<svg version="1.1" xmlns="http://www.w3.org/2000/svg" xmlns:xlink="http://www.w3.org/1999/xlink" x="0px" y="0px" viewBox="0 0 256 256" enable-background="new 0 0 256 256" xml:space="preserve">
<metadata> Svg Vector Icons : http://www.onlinewebfonts.com/icon </metadata>
<g><g><g><path fill="#000000" d="M199.8,15.7c-11.4,2.5-46.8,10.3-78.5,17.2C15.8,55.9,10.3,57.1,10,57.4c-0.2,0.2,3.6,19.8,8.3,43.6l8.6,43.2l0,32.5v32.4l-4.7,9.3c-4.1,8.2-4.5,9.4-3.9,10.2c0.4,0.5,3.8,4.4,7.5,8.7l6.8,7.8l2.4-1.7c1.3-0.9,10.4-7.2,20.2-13.9c17.8-12.2,17.8-12.2,32.6-25.7c8.4-7.6,18-16.9,22.2-21.5c4.1-4.4,7.6-8.1,7.9-8.1c0.3,0,1.7,1,3.3,2.3c1.5,1.3,3,2.3,3.2,2.3c0.3,0,5.4-2.6,11.4-5.8l10.9-5.8l21-4.6l21-4.6l28.6-14.3c17.9-8.9,28.6-14.5,28.6-15c0-2.3-5.5-37-8.2-51.4c-2.6-14-4.3-21.1-9.5-40.8c-7.5-28-6.9-25.7-7.3-25.6C220.7,11,211.3,13.1,199.8,15.7z"/></g></g></g>
</svg>