<?xml version="1.0" encoding="utf-8"?>
<!-- Svg Vector Icons : http://www.onlinewebfonts.com/icon -->
<!DOCTYPE svg PUBLIC "-//W3C//DTD SVG 1.1//EN" "http://www.w3.org/Graphics/SVG/1.1/DTD/svg11.dtd">
<svg version="1.1" xmlns="http://www.w3.org/2000/svg" xmlns:xlink="http://www.w3.org/1999/xlink" x="0px" y="0px" viewBox="0 0 256 256" enable-background="new 0 0 256 256" xml:space="preserve">
<metadata> Svg Vector Icons : http://www.onlinewebfonts.com/icon </metadata>
<g><g><g><path fill="#000000" d="M72.4,16.4c-4.5,3.5-10.9,9.1-14.3,12.4l-6,6L58,51.8C61.2,61.1,68,79.2,73.2,92l9.3,23.3l8.5,39.1c5.5,25.4,10.8,48.2,15.1,65.2c3.7,14.4,6.8,26.3,6.9,26.4c0.1,0.1,9.3-0.1,20.3-0.4l20.2-0.6l25.1-4.9c13.9-2.7,25.2-5,25.3-5c0.2-0.2-18-59-18.3-59.4c-0.2-0.3-2.1,0.4-4.1,1.4l-3.7,1.9l-9.8-6.7c-5.4-3.6-12-8.1-14.6-10l-4.8-3.3l-7.3-19.2c-7.1-18.7-7.5-19.7-15.2-33.7l-7.9-14.4l-8.7-3.7c-4.8-2-9.1-4.1-9.6-4.5c-0.5-0.5-4.6-7.1-9.1-14.8l-8.3-14l2.1-8.6c1.1-4.7,3.1-12.3,4.4-16.8c1.9-6.6,2.4-9.2,2.6-13.4l0.2-5.2L89,10.3C87.5,10.1,85,10,83.4,10C80.6,10.1,80.6,10.1,72.4,16.4z"/></g></g></g>
</svg>