<?xml version="1.0" encoding="utf-8"?>
<!-- Svg Vector Icons : http://www.onlinewebfonts.com/icon -->
<!DOCTYPE svg PUBLIC "-//W3C//DTD SVG 1.1//EN" "http://www.w3.org/Graphics/SVG/1.1/DTD/svg11.dtd">
<svg version="1.1" xmlns="http://www.w3.org/2000/svg" xmlns:xlink="http://www.w3.org/1999/xlink" x="0px" y="0px" viewBox="0 0 256 256" enable-background="new 0 0 256 256" xml:space="preserve">
<metadata> Svg Vector Icons : http://www.onlinewebfonts.com/icon </metadata>
<g><g><g><path fill="#000000" d="M167.1,29.5c-0.6,0.7-0.5,1.4,0.5,4.2c0.9,2.6,1.1,4.2,0.9,6.5c-0.2,1.7-0.4,3.2-0.5,3.3c-0.1,0.1-1.4,0-2.9-0.4c-2.6-0.6-2.6-0.6-2.6-2.6c0-1.7-0.2-2-1.1-2.1c-0.7,0-1.8-0.2-2.6-0.3c-0.8-0.2-3.1,0-5.1,0.3c-7.9,1.1-53.3,3.7-59.6,3.3c-7-0.4-7.2-0.5-10.6-5.4l-2-2.9l-4-0.3c-2.5-0.2-8.2,0.2-15.3,0.9c-14.4,1.5-41.8,4.7-47.5,5.5l-4.4,0.6L10,42.6c-0.2,2.3-0.1,2.5,2.6,4.8c1.5,1.3,2.9,2.4,3,2.4c0.2,0,0.5,2.8,0.7,6.2l0.4,6.2l2.4-0.4c1.3-0.2,4.5-1.1,7-2c3.3-1.2,6-1.7,9.5-2.1c2.7-0.2,6.1-0.6,7.6-0.8c4.5-0.7,12.7,1.5,20.7,5.5c3.5,1.8,6.6,3.5,6.8,3.8c0.2,0.3,1.6,1.1,3.1,1.7c3,1.4,4.3,2.8,4.7,5.5c0.3,2.2,0.4,2.2,2.9,1.2c1-0.4,3.1-0.8,4.7-0.8c3.6,0,7.1-1.7,11-5.4c2.7-2.5,3.1-2.8,5.2-2.8c2.5,0,3.5-1,2.4-2.4c-0.3-0.4-0.5-1.3-0.4-2.1c0.2-1.3,0.4-1.4,3.2-2.1c4.4-0.9,6.2-0.8,8.6,0.4c1.2,0.6,3.5,1.6,5.2,2.3c2.7,1,3.4,1.6,5.1,3.9c1.4,2.1,2.5,3,4,3.4c1.7,0.6,2.1,1,2.8,3.2c0.8,2.2,1.2,2.7,3.4,3.8c1.4,0.8,3,2.1,3.7,3.2c1.2,1.8,1.7,2.1,6.3,3.3l5,1.3l1.5,2.9c0.9,1.5,2.4,3.9,3.5,5.1l1.9,2.3v6.9c0,5.4-0.2,7.5-1,10.1c-0.6,1.8-1,4.1-1,5.1c0,3.7,4,16.1,5.2,16.1c0.6,0,0.9-0.6,2-4.1l1-3.2l-2.1-0.8c-1.1-0.4-2-1-2-1.2c0-0.8,2.5-1.4,4.2-0.9c0.9,0.2,2.3,0.6,3.1,0.7c2.5,0.6,2.3,2-0.8,7.1c-1.5,2.6-3.3,5.2-3.9,5.7c-0.6,0.6-1.1,1.2-1.1,1.4c0,0.3,1.8,2.5,4.1,4.9c2.4,2.6,5,6.1,6.3,8.5c1.2,2.2,3.3,5.5,4.6,7.3c1.3,1.8,3,4.7,3.7,6.5c0.8,1.8,1.6,3.6,1.9,3.9c0.9,1.1,2.6,0.8,3.8-0.7c1.1-1.3,1.2-1.4,2.5-0.7c1.8,1,5.2,6.8,5.6,9.8c0.3,1.5,1.2,3.4,2.7,5.5c2.1,3,2.3,3.2,3,2.3c0.6-0.8,1.1-0.9,3.4-0.7c4.2,0.4,7.4,2.6,10.6,7.4c2.3,3.4,2.8,4.6,3.6,8.7c0.8,4,1.1,4.9,2.3,5.8c1.3,0.9,1.6,1,3.3,0.4c1-0.4,2.5-1.2,3.2-1.8c0.9-0.8,2.2-1.3,4.4-1.5c3.9-0.5,7.2-2.2,9.4-4.9l1.7-2.1l-0.6-3.2c-0.4-2.4-0.4-3.6,0-4.7c0.3-0.8,0.4-2.2,0.3-2.9c-0.3-1.2-0.1-1.5,1.5-2.5c1.5-0.9,1.8-1.5,2.1-3.5c0.2-1.3,0.1-3-0.2-3.8c-0.3-0.7-0.7-5.1-0.8-9.8c-0.2-4.6-0.8-11.1-1.4-14.5c-0.9-5.8-1.2-6.5-4.4-12.3c-1.8-3.4-4.6-8.2-6.1-10.6c-1.5-2.4-3.5-6.1-4.6-8.2c-1-2.1-2.8-4.8-4.1-6.1c-1.6-1.6-2.7-3.5-3.9-6.7c-0.9-2.4-1.8-4.9-2.1-5.4c-0.4-0.8-0.1-1.5,1-2.8l1.4-1.7l-1-2c-0.5-1.1-3.6-4.6-6.8-7.8c-6.6-6.6-8.2-8.9-15.9-22.3c-5.5-9.6-9.2-18.3-12.7-29.6l-1.6-5.2l-6.2-0.4c-3.3-0.2-6.8-0.5-7.5-0.6C168.2,28.7,167.5,28.9,167.1,29.5z"/><path fill="#000000" d="M245.3,189.2c-0.4,0.6-1.3,3.2-2.2,6c-3,9.3-8.2,15.9-16.4,20.8c-4.5,2.7-5.4,3.8-3.6,4.2c0.9,0.2,11.5-8,15.1-11.8c2.2-2.3,3-3.6,4.6-7.9c1-2.8,2.2-5.6,2.6-6.3c0.5-0.7,0.7-2.1,0.6-3.6C245.8,188.4,245.7,188.3,245.3,189.2z"/><path fill="#000000" d="M211,220.5c-1,0.7-2.3,2-2.9,3c-0.6,1-1.4,1.8-1.7,1.8c-0.4,0-1.5,0.3-2.6,0.6c-1.3,0.4-1.8,0.7-1.4,1.1c0.4,0.4,1.5,0.1,3.8-0.8c1.7-0.7,5-1.9,7.2-2.7c4.6-1.6,5-2.6,1.5-3.6C212.9,219.3,212.6,219.4,211,220.5z"/></g></g></g>
</svg>