<?xml version="1.0" encoding="utf-8"?>
<!-- Svg Vector Icons : http://www.onlinewebfonts.com/icon -->
<!DOCTYPE svg PUBLIC "-//W3C//DTD SVG 1.1//EN" "http://www.w3.org/Graphics/SVG/1.1/DTD/svg11.dtd">
<svg version="1.1" xmlns="http://www.w3.org/2000/svg" xmlns:xlink="http://www.w3.org/1999/xlink" x="0px" y="0px" viewBox="0 0 256 256" enable-background="new 0 0 256 256" xml:space="preserve">
<metadata> Svg Vector Icons : http://www.onlinewebfonts.com/icon </metadata>
<g><g><g><path fill="#000000" d="M106.8,4.9c-7,1.3-22.3,3-32.5,3.8C70.1,9,62.8,9.9,58.2,10.6c-10.3,1.6-31.2,4.3-41,5.2L10,16.4l0.3,5.7c0.5,8.7,1.7,13.2,6.4,24.2c4,9.4,4.5,10.8,8.9,29.2c2.5,10.6,5.7,22.6,7,26.5c1.3,4,3.1,10.9,4,15.4c0.9,4.4,2.9,11.9,4.4,16.5c2.5,7.6,3.1,8.8,6.1,12.8c3.1,4.2,3.4,4.7,3.8,8.1c0.5,4.7,0.5,4.7,3.3,5.8l2.4,0.9v3c0,2.2-0.6,4.7-2.2,8.9c-1.6,4.2-2.4,7.7-3,12.2l-0.8,6.3l2.1,5.6c1.9,5.1,2.2,6.4,2.5,12.5c0.3,5.8,0.3,7.3-0.5,9.7c-1.1,3.4-0.6,4.6,2.3,6.2c1.9,1,2,1.3,2.7,5.4c0.7,3.8,1.2,4.9,4.4,9.7c5.7,8.5,4.6,7.9,16.6,8.2c8,0.2,18.8-0.3,51.4-2.3c22.7-1.3,43.9-2.8,47.2-3.2c3.2-0.4,8.8-0.8,12.3-0.8h6.4v1.7c0,1,0.2,2.6,0.3,3.7c0.3,1.8,0.5,2,3.3,2.9c1.6,0.5,3.1,0.9,3.2,0.8c0.1-0.2,0.4-2.6,0.5-5.6c0.4-5.2,0.3-5.5-1.6-10.9l-2.1-5.6l1.5-2.1c1.2-1.9,1.6-2.1,3.1-1.8c6.3,1.1,13.4,1.9,19,2.2l6.5,0.4l-0.2-1.6c-0.1-0.9-0.5-4.4-1-7.9l-0.8-6.3l2.7-12c1.5-6.6,3.6-14.6,4.6-17.9c1.8-5.5,1.9-6.2,1.4-9.3l-0.5-3.5l4.2-7.8c3.8-7.1,4.1-8,3.6-9.4c-0.6-1.7-0.9-1.8-3.7-0.8c-1.7,0.6-2.2,0.6-5.2-0.9c-2.8-1.4-3.4-1.9-3.7-3.3c-0.2-0.9-1.2-4.2-2.4-7.2c-1.8-4.9-2.3-5.8-4.9-8.1c-2.2-2-3.6-2.8-6.1-3.4l-3.2-0.9l-2.3-6.7c-1.2-3.7-3.8-10.1-5.8-14.2l-3.6-7.4l-5.3-2.4c-6.3-2.9-9.7-5.9-12.2-10.7c-1.9-3.6-6.2-7.8-10.1-9.9c-1.6-0.8-3.5-2.6-5.3-5c-4-5.2-9.5-9.2-16.6-11.9c-5.1-2-5.7-2.3-6.2-3.9c-0.3-1-2-3.5-3.7-5.5c-1.7-2-3.4-4.6-3.8-5.7c-0.3-1-2.5-4.6-4.8-8l-4.3-6.1l-4.4,0.1l-4.4,0.1l-5.8-4.3c-7.1-5.2-7.5-5.7-8.2-8.6c-0.4-1.9-0.3-2.8,0.5-4.9c0.9-2.2,1.5-2.8,4-4l3-1.5l-1.6-1.8C114.3,3.6,114.2,3.6,106.8,4.9z"/></g></g></g>
</svg>