<?xml version="1.0" encoding="utf-8"?>
<!-- Svg Vector Icons : http://www.onlinewebfonts.com/icon -->
<!DOCTYPE svg PUBLIC "-//W3C//DTD SVG 1.1//EN" "http://www.w3.org/Graphics/SVG/1.1/DTD/svg11.dtd">
<svg version="1.1" xmlns="http://www.w3.org/2000/svg" xmlns:xlink="http://www.w3.org/1999/xlink" x="0px" y="0px" viewBox="0 0 256 256" enable-background="new 0 0 256 256" xml:space="preserve">
<metadata> Svg Vector Icons : http://www.onlinewebfonts.com/icon </metadata>
<g><g><g><path fill="#000000" d="M37.4,54.1c-1.9,0.9-3.8,1.8-4.2,2.2c-0.8,0.8-2.3,7.1-1.8,7.5c0.2,0.2,2.9,1.4,5.9,2.7c5.4,2.3,9,2.9,10.4,2c0.3-0.2,1.2-2.1,2.1-4.2c1.5-3.6,1.5-4.1,1.1-7.1c-0.4-2-0.9-3.4-1.4-3.6c-0.5-0.3-2.6-0.6-4.7-0.8C41.3,52.5,40.8,52.6,37.4,54.1z"/><path fill="#000000" d="M13.8,64.6c-0.5,0.5-1.5,2.2-2.4,3.8l-1.5,3h2.5c2.5,0,2.5,0,4.6-3.1c1.1-1.7,1.9-3.5,1.8-3.8C18.5,63.5,14.9,63.6,13.8,64.6z"/><path fill="#000000" d="M101.9,78.1c-5.3,2.7-5.8,3.1-6.4,4.8c-0.6,1.9-0.5,2.1,3.2,7.6l3.8,5.7l2.3-0.4c1.3-0.2,3-0.6,3.8-0.9c1.3-0.5,1.6-0.4,2.9,0.8c1.2,1.1,1.8,1.3,4.3,1.3c3.5,0,5.1-0.6,6.2-2.2c0.8-1.2,0.8-1.2-2.1-2.9c-2.6-1.5-3.2-2.2-5.1-5.8c-3.3-6.2-6.3-11.1-6.7-11C107.9,75.1,105.1,76.5,101.9,78.1z"/><path fill="#000000" d="M138.3,101c-0.7,1-1.1,1.9-0.9,2.1c0.9,0.9,11,3.4,15.1,3.7c4.6,0.4,4.9,0.4,7.5-1.1c1.9-1,2.8-1.8,3-2.8c0.2-0.8,0.3-1.4,0.2-1.5c-0.1-0.1-3-0.4-6.5-0.7c-4.2-0.4-6.5-0.5-6.9-0.1c-0.4,0.3-2.2,0.2-5.2-0.5c-2.6-0.6-4.7-1-4.9-1C139.6,99.2,139,100,138.3,101z"/><path fill="#000000" d="M164.7,108.7l-2.4,2.8l3.1,4.2c1.7,2.3,3.9,5.4,5,6.8c1.1,1.6,2.9,3.3,4.5,4.3l2.7,1.6l4.9-1c2.9-0.6,6.4-1.7,8.8-2.9c3.8-1.8,3.9-1.9,3.9-3.8c0-1.8-0.2-2-4.6-4.8c-3.5-2.2-5.7-3.2-9.1-4.1c-2.5-0.6-6.6-2.2-9.2-3.5c-2.6-1.3-4.9-2.4-5-2.4C167.1,105.9,166,107.1,164.7,108.7z"/><path fill="#000000" d="M148,112.8c0,1,3,8,3.9,8.9c0.3,0.3,5.8-1.6,6.4-2.3c1-1.2,0.7-3.2-0.8-5.2c-1.6-2.3-2.9-2.7-7.3-2.7C148.2,111.5,148,111.6,148,112.8z"/><path fill="#000000" d="M198.6,142.6c-1.3,1.1-1.4,1.5-1.1,3.4c0.2,1.2,1,3,1.8,4c0.9,1.1,1.5,2.1,1.5,2.4c0,0.2-1.1,2.1-2.4,4.2c-2.1,3.1-2.9,3.9-4.9,4.8c-2.5,1-2.5,1.1-2.5,3.5c0,2.3,0.2,2.7,2.4,4.7c2.2,2,2.5,2.6,4,7.9c1.5,5.4,1.6,5.8,1,8.3c-0.5,1.7-0.6,4.1-0.4,7.3l0.4,4.8l3.9,2.8c5.8,4.2,6.2,4.1,12.4-3.8c4.1-5.2,5.4-6.6,8-8.1c2.8-1.6,3.1-1.7,4.6-1.1c1.4,0.6,2,0.5,6-0.9c6.5-2.4,14.3-9.2,12.6-11c-0.2-0.2-2.1-1.5-4.3-2.9c-3.7-2.5-3.9-2.7-5.7-6.7c-3-7.1-4.9-9.6-9.3-12.2c-3.4-2-25.5-12.7-26.2-12.7C200.1,141.3,199.4,141.9,198.6,142.6z"/></g></g></g>
</svg>