<?xml version="1.0" encoding="utf-8"?>
<!-- Svg Vector Icons : http://www.onlinewebfonts.com/icon -->
<!DOCTYPE svg PUBLIC "-//W3C//DTD SVG 1.1//EN" "http://www.w3.org/Graphics/SVG/1.1/DTD/svg11.dtd">
<svg version="1.1" xmlns="http://www.w3.org/2000/svg" xmlns:xlink="http://www.w3.org/1999/xlink" x="0px" y="0px" viewBox="0 0 256 256" enable-background="new 0 0 256 256" xml:space="preserve">
<metadata> Svg Vector Icons : http://www.onlinewebfonts.com/icon </metadata>
<g><g><g><path fill="#000000" d="M102.5,10.3c-0.1,0.3-0.4,1.3-0.6,2.5c-0.2,1.1-1.6,6.6-3.1,12.1c-1.5,5.5-4.2,16.5-5.8,24.4c-1.7,7.9-4.2,19.6-5.6,25.9c-3.1,14.3-3.9,23-2.4,28.3c0.8,2.8,1.3,3.5,3.4,5.2c3.6,2.9,3.4,5.7-1,10.6c-1.5,1.7-4,5-5.4,7.1c-1.5,2.2-2.9,4.1-3.3,4.4c-0.3,0.3-0.8,1.4-1,2.6c-0.4,2.3-2,4.4-3.4,4.4c-0.5,0-2.4,1.8-4.3,4.1c-2.5,3-3.4,4.5-3.4,5.6c0,0.8-0.3,2.2-0.5,2.9c-0.7,1.8,0.1,2.8,2.5,2.8c1.6,0,2.1,0.3,2.7,1.6c0.7,1.6,0.7,1.8-1.1,6.1c-1.1,2.4-2.3,5.7-2.8,7.4c-1.2,4.1-12.6,50-12.7,51.3c-0.1,0.8,0.5,1.1,2.7,1.6c3.8,0.9,28.9,5.9,43.6,8.7c6.6,1.2,18.9,3.7,27.2,5.4c23.9,4.9,55.4,10.8,58.1,10.8c1.4,0,2.4-0.3,2.4-0.6c0-0.3,1.6-9.6,3.6-20.6c2-11.1,4.7-27.6,6.2-36.7l2.6-16.6l-1.6-2c-0.9-1.1-1.9-2.9-2.3-4.1c-0.4-1.2-0.9-2.3-1-2.6c-0.6-0.8-3.4,1.2-4.4,3.2c-0.9,1.7-1.2,2-3,2c-1.1,0-3.1-0.5-4.4-1c-2.6-1.1-6.6-1.3-9.5-0.5c-1.5,0.4-2.3,0.4-4.1-0.5c-3-1.3-5.1-1.3-7.3,0.3c-1.8,1.2-4,1.3-4.7,0.3c-0.7-1.2-1.1-5.4-0.7-7.1c0.5-1.8,0.4-2.2-1.4-4.6c-1.1-1.4-2.9-3.3-4.1-4.2c-1.2-0.9-2.3-2-2.5-2.5c-0.9-2.9-3.9-20-3.9-21.9c0-1.3-0.1-2.4-0.3-2.4c-0.2,0-1.7,1.2-3.5,2.6c-4.1,3.2-5.3,3.3-7.8,0.6c-2.1-2.2-2.8-3.6-2.8-5.9c0-0.9,2.2-6.9,4.9-13.4c4.2-10.3,4.8-12,4.5-13.5c-0.4-1.6-0.7-1.9-2.7-2.6s-2.6-1.2-4.9-4.7c-1.4-2.2-4-6.9-5.6-10.5c-2.8-6.2-3.1-6.6-5.2-7.6c-1.9-0.9-2.4-1.5-3.6-4.3c-1.3-3.1-1.4-3.4-0.8-6.7l0.7-3.4l-2.1-5.3l-2.1-5.3l2.8-14.2c1.5-7.8,2.8-14.7,2.8-15.2c0-1-0.8-1.2-8.4-2.7C103.2,9.8,102.8,9.8,102.5,10.3z"/></g></g></g>
</svg>