<?xml version="1.0" encoding="utf-8"?>
<!-- Svg Vector Icons : http://www.onlinewebfonts.com/icon -->
<!DOCTYPE svg PUBLIC "-//W3C//DTD SVG 1.1//EN" "http://www.w3.org/Graphics/SVG/1.1/DTD/svg11.dtd">
<svg version="1.1" xmlns="http://www.w3.org/2000/svg" xmlns:xlink="http://www.w3.org/1999/xlink" x="0px" y="0px" viewBox="0 0 256 256" enable-background="new 0 0 256 256" xml:space="preserve">
<metadata> Svg Vector Icons : http://www.onlinewebfonts.com/icon </metadata>
<g><g><g><path fill="#000000" d="M162.2,11.1c-3.5,0.5-18.9,1.7-34.1,2.7c-23.9,1.6-28.8,1.7-35.6,1.4c-4.4-0.3-8-0.4-8-0.4c-0.1,0.1,0.1,1.1,0.3,2.4c0.4,2,0.6,2.3,2.2,2.7c2.4,0.6,4,2.2,4.4,4.3c0.3,1.3,1.3,2.6,4.3,5.3c4.8,4.4,5.4,5.9,4.4,11c-0.4,1.8-1.5,4.9-2.4,6.8c-1,1.9-2,4.6-2.4,5.9c-1.1,4.3-4.3,6.1-16.1,9.2l-2.5,0.7l-1.2,3.6c-1.4,4.2-1.1,5.5,1.8,7.9l1.8,1.4l-0.3,4c-0.3,3.8-0.4,4.1-2,5.5c-2.2,2-3,3.7-3,7c0,1.9-0.2,2.6-0.9,2.8c-2.4,0.8-3.6,1.3-4.8,2.3c-1.1,0.8-1.2,1.3-1.2,4.2c0.1,3.1,0.1,3.3-1.4,4.3c-1,0.7-1.9,2-2.6,3.8c-1.4,3.7-1,6.9,1.9,16.5l2.3,7.4l7,7.2c5.2,5.3,8.4,8.1,12.3,10.7l5.3,3.5l-0.4,4.2c-0.3,3.7-0.2,4.3,0.7,5.5c1,1.2,1.4,1.3,7.1,1.7c4.9,0.3,6.5,0.6,8.5,1.6c1.7,0.8,2.5,1.6,2.5,2.3c0,2.1-1.2,6.7-3.3,12.1c-1.2,3.1-2.5,7-2.8,8.6l-0.6,2.9l2.1,3.6c1.7,2.9,3.2,4.5,7.9,8.5c6.4,5.3,6.9,5.6,11.4,6.2c1.7,0.2,3.3,0.5,3.6,0.7c0.3,0.2,1.4,2.4,2.5,5c1,2.5,2.8,6,3.8,7.7l1.9,3.1l-0.9,2.8c-0.8,2.7-0.8,2.9,0.1,5.2c1.7,4.5,2.5,5.8,3.9,7.5l1.5,1.8l2-0.8c1.6-0.6,2-1.1,2.6-2.8c0.7-2.5,3.1-4.4,7.6-5.9l3.2-1l5.5,2c3,1.1,5.8,2.1,6.3,2.1c1.3,0,1.4-1.1,0.3-4.6c-0.9-2.6-1.1-4-0.8-5.7c0.3-1.9,0.7-2.5,2.8-3.8c1.3-0.8,3.7-2.1,5.4-2.7c1.6-0.7,2.9-1.3,2.9-1.5s-0.5-1.6-1.1-3.2l-1.1-3l1.3-1.5c2.2-2.6,2.8-5.7,3.1-14.5l0.3-8l2.5-3.3c1.3-1.8,3.1-4.7,3.9-6.6s2.6-5,4-7.1l2.5-3.7l-0.4-5c-0.3-4.5-0.5-5.3-2.3-8.4c-2.3-3.9-2.5-5.9-1.4-15.1c0.5-4.4,0.5-6.5-0.3-12.8c-0.5-4.2-1.2-13.2-1.6-19.9c-0.5-6.8-1.4-18.9-2-26.9c-0.7-8-1.7-20.5-2.3-27.5c-1-12.7-1.1-13.1-3.3-19.6c-1.7-5.1-2.7-7.2-4.1-8.7c-3-3.3-3.8-5.4-4.2-11.2l-0.4-5.2l-1.6,0.1C169.3,10.1,165.7,10.6,162.2,11.1z"/></g></g></g>
</svg>