<?xml version="1.0" encoding="utf-8"?>
<!-- Svg Vector Icons : http://www.onlinewebfonts.com/icon -->
<!DOCTYPE svg PUBLIC "-//W3C//DTD SVG 1.1//EN" "http://www.w3.org/Graphics/SVG/1.1/DTD/svg11.dtd">
<svg version="1.1" xmlns="http://www.w3.org/2000/svg" xmlns:xlink="http://www.w3.org/1999/xlink" x="0px" y="0px" viewBox="0 0 256 256" enable-background="new 0 0 256 256" xml:space="preserve">
<metadata> Svg Vector Icons : http://www.onlinewebfonts.com/icon </metadata>
<g><g><g><path fill="#000000" d="M167.8,10.5c-26.1,2.9-61.3,6.3-68,6.6l-8.5,0.4l-3.6,2.1c-2,1.2-4.9,3.2-6.5,4.7c-3.7,3.3-5,3.6-7.5,2c-1.7-1.1-9.3-3.7-9.6-3.3C64,23,65.2,38,66.7,56.1c3.1,36.7,6.7,81.6,7.3,91.1c0.3,5,0.3,7.3-0.6,12.3c-0.7,4.5-0.9,7.5-0.7,11.2c0.3,5,0.3,5.2,2.6,8.7l2.4,3.5l0.7,7.6l0.6,7.7l-3.4,5.5c-1.8,3-4.4,7.7-5.6,10.4c-1.2,2.7-3.6,6.6-5.2,8.8l-3,4l-0.8,7c-0.8,7.3-1,12.1-0.5,12.1c0.2,0,1.8-0.8,3.6-1.8c3.7-2.1,10.9-3.6,23.2-5l6.4-0.8l2.3,2.2c2.4,2.3,4.6,3.9,5.2,3.9c0.3,0,1.3-1.7,2.3-3.8l1.9-3.8l3.9-1.6c2.1-0.8,4.2-1.5,4.5-1.5c1.2,0,5.7,3.3,6.3,4.7c0.6,1.5,1,1.6,2.7,1c0.8-0.3,1-1,1-4.4l0.1-4l6.4-3.5l6.4-3.5l2.1,2.1l2.1,2h4.5h4.5l0.8-1.9c0.7-1.5,0.7-2.6,0.4-5l-0.5-3.1l3.7-5.2c3.3-4.7,4.3-5.6,9.5-9.5l5.9-4.3l0.7-4.8c1.2-9,0.6-8,5.2-8.7c4.6-0.7,11.4-3.5,16.8-6.9c3.2-2,3.3-2.2,3.1-3.8c-0.2-0.9-1-2.8-1.8-4.2c-1.5-2.4-1.6-2.6-1.1-5.3c0.7-3.4,0.9-0.5-6.5-64.5c-4.4-37.8-9.4-86.3-9.4-90.1C176.8,9.8,174.6,9.8,167.8,10.5z"/></g></g></g>
</svg>