<?xml version="1.0" encoding="utf-8"?>
<!-- Svg Vector Icons : http://www.onlinewebfonts.com/icon -->
<!DOCTYPE svg PUBLIC "-//W3C//DTD SVG 1.1//EN" "http://www.w3.org/Graphics/SVG/1.1/DTD/svg11.dtd">
<svg version="1.1" xmlns="http://www.w3.org/2000/svg" xmlns:xlink="http://www.w3.org/1999/xlink" x="0px" y="0px" viewBox="0 0 256 256" enable-background="new 0 0 256 256" xml:space="preserve">
<metadata> Svg Vector Icons : http://www.onlinewebfonts.com/icon </metadata>
<g><g><g><path fill="#000000" d="M177.6,51.5c-19.2,0.8-77.2,1.7-130.2,2.3l-35.6,0.3l-1,2.6c-0.8,2-0.9,3.3-0.6,5.8c0.4,3.2,0.4,3.2,3.5,5.6c1.7,1.3,3.2,2.4,3.3,2.5c0.4,0.2-3.7,14.7-5.2,18.1c-1,2.4-1.8,4.5-1.8,4.7c0,0.5,4.1,7.6,5.6,9.8c0.5,0.7,1.5,4.2,2.3,7.7c0.7,3.5,2.7,10.2,4.4,14.7c1.7,4.8,3.5,10.6,4.1,13.8c0.9,4.8,1.4,6,3.6,9.5c2.5,3.9,2.6,4.3,3.4,10.1c0.6,4.2,1.4,7.5,2.6,10.7c1.6,4.3,1.8,5.1,2.1,12.1c0.3,6.9,0.4,7.9,2.2,12.7l1.9,5.3l2.8-0.3c1.5-0.2,10.8-0.4,20.5-0.6c65.1-1,116-3.1,127.9-5.1c1.3-0.2,1.6,0.1,3.3,3c2,3.4,6.2,8.6,6.9,8.6c0.3,0,1-0.5,1.8-1.2c1.2-1,1.2-1.3,0.7-3.1c-1-3.6,1.4-7.3,6-8.9c1.4-0.5,1.5-0.8,1.7-3.1c0.2-4.8,1-6.5,3.7-8.4l2.6-1.8v-4.1v-4.2l-2-2c-3.4-3.3-3.5-4.2-1.6-10.2l1.7-5.3l8-2.2c6.7-1.8,8.4-2.5,10.7-4.2c2.1-1.6,2.8-2.5,3.2-4.3c0.4-1.2,1.6-4.8,2.9-8c3.3-8.3,3.6-10.1,2.6-13.2c-0.7-2.2-1.5-3-5.2-6c-2.9-2.3-4.5-4-4.7-4.9c-0.5-2-2.9-4.4-5.9-5.8c-2.4-1.2-2.5-1.3-2.5-3.4c0-1.6-0.5-2.8-1.6-4.6c-1.6-2.4-1.8-2.5-4.3-2.8c-1.7-0.2-3.7-0.9-5.9-2.2c-2.9-1.7-3.7-2.6-6.3-6.4c-2.8-4.3-3-4.7-3.5-9.3l-0.6-4.8l2.2-3.2l2.1-3.2l-4.8-6.9l-4.8-7l-2.6,0.1C195.8,50.8,187,51.2,177.6,51.5z"/></g></g></g>
</svg>