<?xml version="1.0" encoding="utf-8"?>
<!-- Svg Vector Icons : http://www.onlinewebfonts.com/icon -->
<!DOCTYPE svg PUBLIC "-//W3C//DTD SVG 1.1//EN" "http://www.w3.org/Graphics/SVG/1.1/DTD/svg11.dtd">
<svg version="1.1" xmlns="http://www.w3.org/2000/svg" xmlns:xlink="http://www.w3.org/1999/xlink" x="0px" y="0px" viewBox="0 0 256 256" enable-background="new 0 0 256 256" xml:space="preserve">
<metadata> Svg Vector Icons : http://www.onlinewebfonts.com/icon </metadata>
<g><g><g><path fill="#000000" d="M17.3,65.5c-0.4,1.3-7.6,118-7.3,118.3c0.4,0.4,22.4,1.5,81.2,4.3c39.9,1.8,49.4,2.2,89.1,2.6c24.4,0.3,48.9,0.3,54.5,0.2l10.1-0.3l0.3-12.1c1-37.1,1-52.4,0.1-62.8l-0.9-10l-2.1-1.5c-2.3-1.7-6.5-6.7-9.3-11.2c-1.7-2.8-1.9-3.3-1.6-5.4c0.3-1.7,0.8-2.8,2.1-4.2c1.4-1.4,1.8-2.3,1.8-3.6c0-2.4-1.1-3.3-4.4-3.7c-2.2-0.3-2.9-0.7-5.4-3.1l-2.8-2.8l-45.4-0.5c-25-0.3-55.8-0.9-68.6-1.3c-65.1-2.2-83-2.8-86.9-3.1C18.6,65,17.5,65.1,17.3,65.5z"/></g></g></g>
</svg>