<?xml version="1.0" encoding="utf-8"?>
<!-- Svg Vector Icons : http://www.onlinewebfonts.com/icon -->
<!DOCTYPE svg PUBLIC "-//W3C//DTD SVG 1.1//EN" "http://www.w3.org/Graphics/SVG/1.1/DTD/svg11.dtd">
<svg version="1.1" xmlns="http://www.w3.org/2000/svg" xmlns:xlink="http://www.w3.org/1999/xlink" x="0px" y="0px" viewBox="0 0 256 256" enable-background="new 0 0 256 256" xml:space="preserve">
<metadata> Svg Vector Icons : http://www.onlinewebfonts.com/icon </metadata>
<g><g><g><path fill="#000000" d="M159,68.4c-1,0.4-3.4,0.7-5.3,0.7c-3.7,0.1-4.3,0.4-4.8,2.9c-0.3,1.2-0.1,1.8,1,2.9c0.7,0.8,1.5,2.2,1.6,3.2c0.3,1.7,0.2,1.9-2.2,3.6c-3.6,2.6-8.3,4.7-11.9,5.4l-3.1,0.6l-0.5,4.2l-0.5,4.2l-4.5,3.7c-2.4,2-5.6,5.2-7.1,7c-2.4,3-2.7,3.5-2.3,5.3c0.2,1.1,0,2.8-0.4,4l-0.7,2h-4.6c-4.3,0-4.6-0.1-5.5-1.4l-1-1.3l-3.7,2.1l-3.7,2.2v3.3v3.3l-1.7,0.3c-1.6,0.3-2,0.1-4.2-2c-1.4-1.3-2.9-2.3-3.4-2.3c-1.9,0.1-5,2.4-6.6,5c-0.9,1.5-1.8,2.9-2,3c-0.6,0.6-2.7-0.7-4.6-2.9l-1.8-2l-8.3,1.3c-6.9,1.1-8.8,1.6-11.4,3c-2.9,1.6-3.2,1.8-4.2,4.9c-0.6,1.8-1.6,3.5-2.1,3.9c-1,0.7-1,0.8,0.1,3.8c0.7,1.7,1.2,3.3,1.3,3.5c0.1,0.3-1.3,0.9-3,1.5c-4.8,1.5-5.6,1.9-7,3c-1.8,1.5-2.1,4.8-0.6,7.6c0.6,1.2,1.1,3.1,1.1,4.2c0,1.8-0.2,2.2-1.2,2.4c-1.2,0.3-7.2-1.6-10.9-3.5c-1.7-0.8-2.2-0.9-3.9-0.4c-4,1.3-7.5,4.8-7.5,7.4c0,0.3,0.6,1.6,1.4,2.7l1.4,2.1l-1,2.3c-0.6,1.2-1,3.4-1,4.7c0,2.2-0.2,2.6-1.7,3.3c-0.9,0.5-2.9,1.8-4.3,2.9l-2.6,2h6.5c3.5,0,10.2-0.4,14.8-0.8s11.8-0.8,16-0.8h7.6v-2.2c0-1.2,0.2-3.1,0.3-4.2l0.4-1.9h4.6c2.5,0,12.8-0.9,22.9-2.1c10.1-1.1,40.8-4.2,68.3-6.8c27.5-2.5,50.8-4.8,51.8-5c1-0.2,4.7-2,8.3-4.1c3.6-2.1,7.6-4.4,9-5.2c2.2-1.3,2.4-1.6,2.4-3.4c0-1.5,0.4-2.3,1.6-3.5c0.9-0.8,3.6-4.3,6-7.6c2.4-3.3,4.6-6.1,4.8-6.1c0.6,0,9.9-8.8,10.5-9.9c0.4-0.8,0.1-1.2-2.4-2.7c-4.8-2.8-13.1-12.3-14.2-16.3c-0.5-1.8-1-2.3-2.9-3.3c-3.2-1.5-3.9-3.2-4.3-9.7l-0.3-5.4l-2.5-2.1c-1.4-1.1-3-2.4-3.7-2.7c-1-0.5-1.5-1.2-1.9-3.2c-1-4.2-2.7-4.1-8.3,0.8l-3.9,3.4l-1.3-1.3c-0.8-0.7-2.4-1.4-4.1-1.7c-2.6-0.5-3-0.4-4.9,0.8c-3,1.9-5.6,1.7-8.2-0.7c-1.9-1.7-2.1-1.8-6.5-1.8c-2.4,0-4.8-0.2-5.4-0.5c-0.5-0.3-1.6-2.2-2.3-4.3c-1.2-3.5-1.6-3.9-4-5.3C161.8,67.4,161.5,67.4,159,68.4z"/></g></g></g>
</svg>