<?xml version="1.0" encoding="utf-8"?>
<!-- Svg Vector Icons : http://www.onlinewebfonts.com/icon -->
<!DOCTYPE svg PUBLIC "-//W3C//DTD SVG 1.1//EN" "http://www.w3.org/Graphics/SVG/1.1/DTD/svg11.dtd">
<svg version="1.1" xmlns="http://www.w3.org/2000/svg" xmlns:xlink="http://www.w3.org/1999/xlink" x="0px" y="0px" viewBox="0 0 256 256" enable-background="new 0 0 256 256" xml:space="preserve">
<metadata> Svg Vector Icons : http://www.onlinewebfonts.com/icon </metadata>
<g><g><g><path fill="#000000" d="M86.4,25.2C69,26,57.3,26.3,36.8,26.3L10,26.4v12.9c0,13.8,1,30.1,2.4,37.3c0.7,3.7,1.2,5.1,3.8,9.3c2.8,4.6,3.1,5.4,4.1,11l1.1,6.1l5.3,6.8l5.3,6.8v3.3c0,2.5,0.3,3.6,1,4.5c1,1.2,1,1.5,0.1,11.5l-0.9,10.3l-3.5,5.8c-2,3.3-3.3,6.1-3.1,6.4c0.2,0.3,1,1.5,1.8,2.5l1.5,1.9l-0.8,3c-0.5,1.6-1.2,6.9-1.6,11.7c-0.7,7.8-1,9.2-2.5,12.9c-1.7,4-1.7,4.4-1.4,8.3l0.3,4.1l5.4-1.7c5.1-1.6,6.1-1.8,15.2-2.2l9.7-0.4l12.5,4.3c10,3.4,14,4.6,20.3,5.6l7.8,1.3l4.4-1.7l4.4-1.7l6.4,2.2c9.2,3.1,9.1,3.1,9.7,1.5c1.4-3.6,1.4-3.5-2.6-5c-3.4-1.3-3.9-1.3-6.9-0.8l-3.2,0.6l-3.2-1.9c-1.7-1.1-3.1-2.3-3.1-2.7c0-1.8,1.1-2.7,5.1-3.8l4.1-1.1l2.1,1.6l2.1,1.6l2.2-1.1c2-1,2.4-1.1,5.5-0.5c1.8,0.4,3.7,0.8,4.2,1.1c1.2,0.6,4.1,6.5,4.1,8.4c0,0.9,0.2,1.8,0.4,2.2c0.2,0.3,2.7,0.7,5.5,0.9l5.1,0.4l2.2,2.2l2.3,2.2l-1,2c-0.6,1.1-1.6,2.4-2.4,2.8c-0.7,0.4-1.3,0.8-1.3,1c0,0.2,0.9,1.1,2,2.2c1.4,1.3,4.6,2.9,11.9,6l10,4.2l4.1-1.5c4.3-1.6,4.4-1.6,5.8-5.2c0.9-2.2,1.1-2.4,3.9-3c2-0.5,3.7-1.3,5.2-2.5l2.2-1.8l1.6,1.1c0.8,0.6,1.5,1.1,1.5,1.2s0.5,1.6,1,3.5l1,3.4l-2.5,0.9c-2.6,1-2.9,1.3-1.8,2.2c0.4,0.4,1.8,0.1,4.6-1.1c4-1.5,4.1-1.7,6.6-5.4c1.4-2.2,3.1-4.3,3.7-4.8c1.1-0.9,1.1-0.9-0.7-0.9c-2.8-0.1-3.3-0.6-2.4-2.5c0.5-0.9,0.8-2.5,0.8-3.6c0-2,0.1-2.1,2.2-2.4c1.4-0.3,2.7-0.9,3.8-1.9c1.6-1.6,1.7-1.6,2.4-0.7c0.4,0.6,0.8,2.4,0.9,4.2c0.1,1.7,0.4,3.3,0.6,3.5c0.2,0.2,2.6,0.7,5.3,1.1c6.4,0.9,14.8,4.7,16.4,7.3c0.9,1.5,1.1,1.6,4.4,1.6c2.9,0,3.7,0.2,5,1.3l1.5,1.3l2.6-3.5c2-2.7,2.6-3.9,2.6-5.4c0-1.6-0.2-1.8-1.3-1.8c-0.9,0-2.7-1-5-2.9c-2-1.6-3.9-3.1-4.2-3.3c-0.3-0.3-3.7-0.9-7.6-1.5c-7-1-7-1-10.7-3.6c-2.1-1.4-3.6-2.9-3.5-3.2c0.1-0.4,0.6-1.8,1.2-3.4l1.1-2.7l2.6,0.3c3.6,0.5,4.1-0.5,1.1-2.4c-1.3-0.8-2.2-1.6-2-1.9c0.2-0.3,2-0.5,4.1-0.5h3.7l2.1-3.6l2.1-3.6l-1.5-2.2c-0.8-1.2-1.6-3.2-1.8-4.4c-0.7-4.7-0.7-4.7-2.5-4.3c-2.7,0.5-6.2,4.7-7.1,8.3c-0.4,1.6-1,2.9-1.2,2.9c-0.3,0-2-0.4-3.7-0.7c-3.1-0.7-3.3-0.8-4.4-3l-1.1-2.3l4.5-4.3l4.5-4.3l-2.9-7.1c-1.5-3.9-2.8-7.3-2.8-7.5c0-0.2-1.8-2.4-4.1-4.9l-4.2-4.5l1.1-7.5c0.6-4.2,1-8.4,1-9.3c0-1.7,0-1.7-1.9-1.4c-10.7,2-37.2,3.2-70.5,3.3h-10.6l-0.8-2.7c-0.7-2.5-0.7-3.4,0.3-12.9l1.1-10.2l4.5-8.1c2.5-4.4,7-12.3,10-17.5l5.5-9.5l-0.6-2.8c-0.7-2.9-0.6-3.2,1.9-4.6c0.4-0.2,0.8-1.4,1-2.7c0.3-2.3,0.3-2.4-2.2-4.6c-2.3-2.1-2.6-2.6-2.8-4.8c-0.2-1.4-1.2-4.8-2.4-7.5c-1.8-4.3-2.2-5.7-2.7-10.8c-0.3-3.2-0.5-6.4-0.5-7.2v-1.4L121,23.9C114.5,23.9,99,24.5,86.4,25.2z"/></g></g></g>
</svg>