<?xml version="1.0" encoding="utf-8"?>
<!-- Svg Vector Icons : http://www.onlinewebfonts.com/icon -->
<!DOCTYPE svg PUBLIC "-//W3C//DTD SVG 1.1//EN" "http://www.w3.org/Graphics/SVG/1.1/DTD/svg11.dtd">
<svg version="1.1" xmlns="http://www.w3.org/2000/svg" xmlns:xlink="http://www.w3.org/1999/xlink" x="0px" y="0px" viewBox="0 0 256 256" enable-background="new 0 0 256 256" xml:space="preserve">
<metadata> Svg Vector Icons : http://www.onlinewebfonts.com/icon </metadata>
<g><g><g><path fill="#000000" d="M115.5,11.8c-0.9,1-3.9,3.4-6.5,5.4c-3.6,2.7-4.8,3.9-4.8,4.8c0,0.6-0.5,1.6-1,2.1c-0.9,0.8-1.3,0.9-4.2,0.2c-3-0.6-3.3-0.8-4.7-3.2c-0.9-1.3-1.7-3.2-1.8-4.1c-0.3-1.5-0.5-1.6-3.2-1.7l-2.8-0.2l-2.7,5.5c-1.5,3-4.1,9.9-5.8,15.3c-1.7,5.3-4.2,12.4-5.3,15.7l-2.2,5.9l0.4,7.4c0.3,6.4,0.3,7.9-0.5,10.7c-0.5,1.8-1.4,3.8-2,4.4c-0.9,1-1,1.7-1,8v6.9l2.4,3l2.4,3l-1.7,4.7c-0.9,2.6-3,7.2-4.7,10.2c-2.9,5.2-3.1,5.9-4,11.8c-0.5,3.5-1,7.8-1,9.6v3.2l-1.4-0.4c-1.5-0.4-4.7-0.5-5.1,0c-0.2,0.1,4.9,16.8,11.1,37.1c15.7,50.4,15.9,51.3,15.9,53.5c0,1.9,1,3.6,2.2,3.6c0.3,0,2.1,0.5,4,1.1l3.5,1l0.4,2.9c0.2,1.6,0.5,3.2,0.6,3.6c0.3,0.8,5.2,3.4,5.6,3c0.6-0.6,2.7-13.6,3-19c0.4-6,0.4-6,2-7.2l1.7-1.3l-1.2-3.9l-1.2-3.9l3.4-4.1c1.9-2.2,3.6-4.1,3.8-4.1c0.2-0.1,1.2,0.7,2.2,1.5c2.2,2,1.6,2.1,10.7-3c6.4-3.6,7-4.3,7-7.7c0-1,0.2-2.2,0.4-2.5c0.2-0.3,1.7-0.8,3.4-1c3-0.5,3.1-0.5,5.1-3.5l2.1-3l-0.6-5.7c-0.6-5.3-0.5-5.8,0.5-7.1c1.2-1.7,0.9-2.9-1.3-5.7c-0.8-1.1-1.4-2-1.3-2.1c0.1-0.1,1.2-0.8,2.4-1.5l2.2-1.3l1,1.6c0.6,0.9,1.5,2.6,2.2,3.8c1.1,2,1.3,2.1,2.9,1.8c1.9-0.3,2.1,0.1,2.4,4.2l0.2,2.1l2.4,0.2l2.4,0.2l0.4-2.6c0.2-1.4,0.6-3.2,0.9-3.9c0.5-1.1,0.4-1.4-1.1-3l-1.7-1.7l0.9-1.6c0.5-0.9,2.4-2.5,4.1-3.6c1.7-1.1,3.6-2.7,4.1-3.6c0.8-1.4,1.2-1.6,3.1-1.6c1.6,0,2.2,0.2,2.2,0.8c0,0.5,0.4,1.5,0.8,2.3c0.7,1.3,1.1,1.5,2.7,1.5c1.8,0,2.2-0.4,6.8-5.6c7-8.1,13.6-14.1,16.5-15.1c2.4-0.8,2.4-0.9,4.8-6.1c3.2-7.2,3.2-9.2,0-14.6c-1.3-2.2-3.4-5.1-4.7-6.6l-2.3-2.7h-3.3c-3.3,0-3.9,0.4-2.8,2c0.6,1,0.2,2.1-0.9,2.1c-0.4,0-2.4-1.2-4.2-2.6l-3.5-2.6l-0.4-6.2c-0.3-4.6-0.6-6.8-1.3-8.2l-1-1.9l-7-0.2l-7-0.2l-10.6-35.1l-10.6-35.1l-1.8-0.9C133.8,15,120.5,10,119,10C117.7,10,116.8,10.5,115.5,11.8z"/><path fill="#000000" d="M163.4,157.2c-1,0.5-2.4,1.9-3.3,3.3l-1.5,2.5l2.4,2.3c1.8,1.9,2.6,2.3,3.6,2c1-0.3,1.3-0.7,1.6-2.7c0.2-1.3,0.8-2.9,1.4-3.5c1-1.1,1-1.1,0.2-3C166.6,156.1,165.9,155.9,163.4,157.2z"/><path fill="#000000" d="M144.7,175.2l-1.8,1.9l2.1,3.2l2.1,3.2l2.1-1c1.4-0.7,2-1.3,1.7-1.8c-0.2-0.4-0.5-1.6-0.6-2.8c-0.3-1.4-0.8-2.4-2-3.2l-1.6-1.3L144.7,175.2z"/></g></g></g>
</svg>