<?xml version="1.0" encoding="utf-8"?>
<!-- Svg Vector Icons : http://www.onlinewebfonts.com/icon -->
<!DOCTYPE svg PUBLIC "-//W3C//DTD SVG 1.1//EN" "http://www.w3.org/Graphics/SVG/1.1/DTD/svg11.dtd">
<svg version="1.1" xmlns="http://www.w3.org/2000/svg" xmlns:xlink="http://www.w3.org/1999/xlink" x="0px" y="0px" viewBox="0 0 256 256" enable-background="new 0 0 256 256" xml:space="preserve">
<metadata> Svg Vector Icons : http://www.onlinewebfonts.com/icon </metadata>
<g><g><g><path fill="#000000" d="M178.7,69.7c-4.9,1.1-21.6,4.4-37,7.3C107.9,83.5,10.4,103.2,10,103.6c-0.2,0.2,0.5,4,1.5,8.4c1,4.5,2.3,11.2,3,15c0.6,3.8,1.3,7.1,1.5,7.3c0.3,0.3,12.1-12.6,13.7-14.9c0.1-0.1,1.8-0.6,3.9-1.1c4.3-1.1,6.2-2.7,10.3-8.7c1.4-2.1,2.7-4,2.8-4.1c0.1-0.1,1,0.2,2.2,0.7c1.6,0.7,2.7,0.8,6.2,0.5c4.2-0.4,4.2-0.4,8.2-3.5c7-5.7,9.7-7.4,12.4-8.2l2.8-0.8L81,96c1.4,1,4.6,2.7,6.9,3.9c4.4,2.2,8.4,5.5,11.8,9.8c1.6,2,2.7,2.6,7.4,4.6c3.1,1.2,5.9,2.5,6.2,2.7c0.4,0.3,0.7,2.2,0.8,4.7l0.2,4.2l8,1.8c4.4,1,8.7,2.3,9.6,2.7l1.6,0.9l2.2-3.1c1.2-1.7,2.4-2.9,2.7-2.7c1,0.6,7.2,4.9,7.7,5.3c0.2,0.2-0.4,1.8-1.4,3.7c-1.4,2.6-2.2,4.8-3.1,9.6c-1.1,5.8-1.4,6.5-3.8,10c-2.5,3.6-2.6,3.9-2.6,7.1c0,2.9,1,6.9,2,8.1c0.2,0.2,3.4,1.2,7.2,2.3c6.5,1.7,7.3,1.9,13.5,1.8c6-0.1,6.9,0,11.6,1.4c2.8,0.9,6.4,1.7,8.1,2l3,0.5l1.4-3.1l1.4-3.1l-2.3-3.3c-2-2.9-2.3-3.7-2.3-6c0-2.6-0.1-2.6-3.5-5.6l-3.5-3l-3.1-8.3l-3.1-8.3l1.8-7.2c1.3-5.2,1.8-8.2,1.7-11c0-3.7-0.1-3.9-2-5.8c-1.3-1.4-1.7-2.1-1.4-2.6c2.2-2.9,3.9-5.9,3.9-6.9c0-3.4,1.1-5.2,5.1-8.1c2.2-1.5,4.8-3.5,5.8-4.4l1.9-1.6l0.7,1.4c0.8,1.4,0.7,1.5-1.4,3.7c-1.7,1.8-2.6,3.4-4.1,8c-2.5,7.1-2.3,8.4,1.4,9.3c1.4,0.4,2.6,0.7,2.7,0.8s0.4,2.6,0.7,5.5c0.3,2.9,0.6,6.5,0.8,8l0.3,2.6l-3.1,1.5l-3.1,1.5l0.4,5.1c0.2,2.8,0.4,5.2,0.5,5.3c0.5,0.5,1.7-0.8,3-3c0.8-1.4,1.6-2.6,1.8-2.6c0.3,0,1.4,1.1,2.7,2.4c2,2,2.2,2.4,1.5,2.9c-4.3,3.2-4,2.8-4.6,8.3l-0.5,5.1l3.6,4.8c2,2.7,4.2,5,4.8,5.3c0.6,0.3,3.4,0.7,6.1,1c4.6,0.6,5.1,0.5,7-0.5c1.1-0.6,2.3-1.1,2.5-1.1c0.3,0,2.6,2.7,5.1,6.1c3.7,4.8,5.1,6.3,6.7,6.9l2.1,0.8l9.9-4.2l9.9-4.1l3-6.1l3-6.1l0.4-7.2c0.2-4,0.2-7.2,0.1-7.2s-4,0.8-8.7,1.8c-7.8,1.7-9.2,1.8-17.7,1.9l-9.2,0.1l-2.5-9.5c-1.4-5.2-4-16.4-5.9-25c-3-13.8-3.7-16.3-6.7-23.9c-1.9-4.6-4.2-11.2-5.2-14.6c-1-3.4-2-6.3-2.1-6.5C187.9,67.8,183.7,68.6,178.7,69.7z"/><path fill="#000000" d="M136.4,129.4l-1.4,2.3l1.3,1.1c0.8,0.6,2.2,2.3,3.1,3.6l1.7,2.6l1.4-2.6c2.6-5.2,2.7-4.8-1-7.2c-1.7-1.2-3.3-2.1-3.4-2.1C138,127.1,137.3,128.1,136.4,129.4z"/><path fill="#000000" d="M198.4,169.8c-0.9,0.3-1.7,0.6-1.7,0.7c0,0.1,0.7,1.7,1.6,3.6c0.8,1.9,1.7,4.6,1.8,6.1c0.3,2.8,3,8.2,3.9,7.9c0.3-0.1,1-0.8,1.5-1.5c1-1.3,1-1.4-0.1-5.9c-0.6-2.5-1.6-6.1-2.2-8C202.1,168.9,201.9,168.7,198.4,169.8z"/></g></g></g>
</svg>