<?xml version="1.0" encoding="utf-8"?>
<!-- Svg Vector Icons : http://www.onlinewebfonts.com/icon -->
<!DOCTYPE svg PUBLIC "-//W3C//DTD SVG 1.1//EN" "http://www.w3.org/Graphics/SVG/1.1/DTD/svg11.dtd">
<svg version="1.1" xmlns="http://www.w3.org/2000/svg" xmlns:xlink="http://www.w3.org/1999/xlink" x="0px" y="0px" viewBox="0 0 256 256" enable-background="new 0 0 256 256" xml:space="preserve">
<metadata> Svg Vector Icons : http://www.onlinewebfonts.com/icon </metadata>
<g><g><g><path fill="#000000" d="M149,68.5l-6.9,3.1l-4.1,6.3l-4.1,6.2l-4.1,1.2c-2.3,0.6-19,4.7-37.2,9.1C60.9,102,46,105.2,22.8,109.3c-5.8,1-10.6,1.9-10.6,2c-0.1,0.1-0.7,9.1-1.3,20.2c-1.1,18.5-1.1,20.8-0.5,29.5c0.4,5.9,0.9,9.4,1.2,9.5c0.4,0.2,19.2-3.9,41.9-8.8c22.7-5,45.8-10,51.3-11.1c5.5-1.1,15.6-3.7,22.5-5.6c14.1-4.1,12-4.2,17.5,0.6c3.8,3.2,15.5,18.5,20.3,26.4c2.2,3.6,4.6,7.5,5.2,8.6l1.2,1.9l3.7-1.8c2-1,3.8-2,3.9-2.1c0.1-0.1-0.2-2.1-0.7-4.4l-0.9-4.2l1.4-2.8c1.4-2.6,1.7-2.9,7.1-5.5c3-1.6,5.6-2.8,5.7-2.7s0.8,2.7,1.7,5.9l1.5,5.7l-0.9,3.2c-1,3.5-1.2,3.7-8,7.8c-2.1,1.3-2.4,1.6-2.4,3.2v1.8l2.4-1.7c4.1-2.9,5.7-4.6,12.9-13l7-8.2l7.1-3.6c4-2.1,10.5-4.8,15.1-6.4c4.4-1.5,8.3-2.9,8.5-3.1c0.8-0.7-0.7-8.8-2.6-14.6c-1.6-5.1-2.2-6.1-5.7-10.5c-3.4-4.3-4.2-5-7.2-6.3c-3.2-1.5-3.6-1.5-7.5-1.2c-2.6,0.2-4.4,0.7-5,1.2c-0.8,0.8-0.8,0.9,0.8,3.1c0.9,1.3,1.8,2.4,2,2.5c0.2,0.2,1.6-0.5,3-1.3l2.7-1.5l4,3.1c4.1,3.1,4.1,3.1,5.3,7.3c2.2,7.1,2.3,6.4-1.3,9.9c-2.6,2.5-4.2,3.6-7.8,5.2l-4.6,2l-4.7-0.7c-2.6-0.4-5.6-0.8-6.8-0.9l-2.2-0.3l-7.4-11.5c-4.3-6.6-9.3-13.6-11.7-16.4l-4.3-4.9h-3.6c-3.2,0-3.9,0.2-5.6,1.5l-2.1,1.5l-3.3-4.4c-1.8-2.4-3.5-4.7-3.7-5.1c-0.8-1.3,0.8-6,5.3-15.8c2.5-5.3,4.6-9.9,4.6-10.1c0-0.7-10.7-16.9-11.1-16.9C156.1,65.4,152.8,66.8,149,68.5z"/><path fill="#000000" d="M238.2,175.3c0,0.1-0.4,1.5-0.9,3.2l-0.9,3l-4.2,1.3c-2.8,0.9-4.5,1.7-5.1,2.5l-0.8,1.1l7.3-0.3c6.4-0.3,12.2-1.2,12.2-2.1c0-0.2-0.9-2.2-1.9-4.6l-1.8-4.3h-2C239.2,175.2,238.3,175.3,238.2,175.3z"/><path fill="#000000" d="M196.5,182.3l-4.4,5l1.9,1.6c1.1,0.9,2.2,1.6,2.4,1.7c0.3,0,3.1-1.2,6.4-2.7c3.3-1.5,7-3.2,8.4-3.7c1.4-0.5,2.5-1.1,2.5-1.3c0-0.2-1.5-1.5-3.3-2.9c-3.1-2.5-3.4-2.6-6.4-2.6h-3.1L196.5,182.3z"/></g></g></g>
</svg>