<?xml version="1.0" encoding="utf-8"?>
<!-- Svg Vector Icons : http://www.onlinewebfonts.com/icon -->
<!DOCTYPE svg PUBLIC "-//W3C//DTD SVG 1.1//EN" "http://www.w3.org/Graphics/SVG/1.1/DTD/svg11.dtd">
<svg version="1.1" xmlns="http://www.w3.org/2000/svg" xmlns:xlink="http://www.w3.org/1999/xlink" x="0px" y="0px" viewBox="0 0 256 256" enable-background="new 0 0 256 256" xml:space="preserve">
<metadata> Svg Vector Icons : http://www.onlinewebfonts.com/icon </metadata>
<g><g><g><path fill="#000000" d="M53.1,4.3c-0.8,0.3-3.6,2-6.2,3.9c-2.7,1.9-5.7,3.8-6.8,4.2c-1.5,0.5-4.9,3.6-4.9,4.5c0,0.2,0.6,0.6,1.4,1.1c1.3,0.9,1.5,0.9,6-1.6c3.5-1.9,5.9-3.8,9.4-7.2C57.5,4,57.7,2.8,53.1,4.3z"/><path fill="#000000" d="M71.3,29.8c-5.3,0.7-10.8,3.8-15.1,8.6c-1.8,2-3.9,3.9-4.7,4.3c-1.6,0.7-4.9,5.4-4.9,7c0,0.8-1.1,1.6-4.2,3.2c-2.3,1.1-5.1,2.9-6.3,3.7c-1.5,1.2-3,1.8-5.9,2.3c-7.1,1.1-7.6,1.2-7.9,2.7c-0.4,1.6-5.1,4.9-8.9,6.2C9,69.2,9,69,12.6,74.1c1.8,2.5,3.3,4.6,3.4,4.6c0.1,0.1,3.4,0.6,7.4,1.2c6.9,1,21.3,4.5,25.3,6.2c1,0.4,6.6,1.8,12.4,3.1c10.5,2.3,10.5,2.3,13,4.6c1.4,1.3,3.7,2.8,5.4,3.4l3,1.1l1.7,9.3c1.6,8.5,1.8,9.4,3.2,10.5c3.2,2.7,3,2.9,6.2-4.3c1.6-3.6,3.2-8.1,3.7-9.8c0.8-3.5,3.8-10.7,4.9-11.3c0.4-0.2,1.2,0.3,2.1,1.3l1.5,1.7l4.4-2.3l4.4-2.4l1.3,1.6c1.3,1.6,1.3,1.6,2.8,0.7c1-0.6,1.8-1.8,2.6-3.8c1-2.9,1.1-3,4.1-3.8c1.7-0.5,5.4-1,8.2-1.2c2.9-0.2,5.5-0.5,5.7-0.8c0.3-0.2,1.1-1.2,1.9-2.3c1.4-1.9,1.6-1.9,5.9-2.3c3.7-0.3,5.6-0.1,11.1,1.1l6.6,1.5l2.9-1.2c4.5-2.1,14.3-2.9,18.6-1.7c3.9,1,4-0.7,0.2-2.7c-1.1-0.5-3-2.1-4.4-3.5l-2.4-2.5l-0.1-6.3c-0.1-6-0.1-6.3-1.3-6.8c-1-0.3-1.5-0.2-2.4,0.6c-0.8,0.7-3.9,1.8-8.4,3l-7.2,1.9l-3-1l-3-1l-0.2-5.4l-0.2-5.3l-1.7,0.3c-1,0.1-4.5,1.5-7.9,3c-6,2.6-6.4,2.8-11.1,2.8c-7.6,0-11.4,1.3-16.8,5.9c-2.4,2.1-4.9,3.9-5.7,4.2c-4.9,1.7-5.3,1.8-7.1,1c-1-0.5-2.2-1.1-2.7-1.5c-0.8-0.5-1.2-0.5-2.5,0.3c-1,0.6-2.7,0.9-4.8,0.9c-3.1,0-3.2-0.1-5.7-2.6c-1.3-1.4-3.2-3.9-4-5.5c-1.2-2.4-2-3.2-4.2-4.3c-1.7-0.8-3.9-1.4-6.1-1.5c-2.6-0.2-3.6-0.5-4.5-1.5l-1.2-1.2l-3.7,3c-2,1.7-3.8,3.3-3.9,3.7c-0.5,1.3-1.9,0.2-1.9-1.4c0-2.2,0.8-4,3-6.9c1.1-1.4,2.1-3.5,2.3-4.6c0.3-1.8,0.6-2.2,2.5-3.1c1.8-0.8,2.5-1.5,3.5-3.6c1.2-2.6,1.3-2.7,4.5-3.5c2.4-0.5,3.4-1,3.5-1.7c0.2-1.1-1.3-3.1-2.3-3C75.3,29.3,73.3,29.5,71.3,29.8z"/><path fill="#000000" d="M191.9,71.7c-2.3,0.3-3.1,1.5-1.6,2.9c0.6,0.5,1.2,1.8,1.4,2.8c0.3,1.8,0.4,1.9,3.2,2.1c2.3,0.2,3,0,4.1-0.9c1.6-1.5,1.5-2.7-0.5-5.2C196.6,71.2,196.5,71.2,191.9,71.7z"/><path fill="#000000" d="M164.7,89.6c-6.5,4.3-7.8,5.6-7.8,7.4c0,4.2,0.4,5,3.5,5.7c1.7,0.5,2.8,1.1,2.8,1.6c0,0.9-3.4,2.1-6,2.1c-3.8,0.1-6.5,4.6-5.5,9.2c0.2,1,0.5,3.9,0.5,6.5l0.1,4.6l-2.9,1.7c-1.6,1-3.2,1.8-3.6,1.8c-1.2,0-0.9-7.7,0.3-10.2c1.9-3.9,2.4-6,1.6-7c-0.6-0.6-1.1-0.6-2.4-0.1c-2.1,0.9-2.2,1.1-2.9,5.1c-0.6,3.3-0.7,3.4-3,4.3c-2.5,1-6.2,4.3-6.2,5.7c0,0.5,0.3,1.1,0.6,1.5c0.4,0.4,0.4,1.3-0.1,3c-0.6,2.3-0.8,2.5-2.8,2.8c-2.4,0.4-2.6,1-1.3,4.6c0.8,2.1,0.8,2.8-0.2,7.8c-0.6,3-1.7,7.1-2.5,9.2c-1.5,4-1.5,5.7-0.2,11.9c0.5,2.3,0.4,3.2-0.5,6.4c-1.7,5.5-1.6,6.3,2.1,12.4c3.9,6.6,8.1,15.9,9.8,21.5l1.2,4.1l-1.5,9.1c-1.2,7.6-1.8,10-3.8,14.5c-1.3,3-2.5,6.5-2.7,7.8c-0.3,1.9-0.9,2.9-3.2,5l-2.8,2.6l3.6,0.1c3.6,0,39.6-3.7,50.1-5.1c3.1-0.4,5.7-0.8,5.8-0.8s0.2,0.6,0.2,1.4c0,1.6,0.3,1.6,6.5,0.5c4.4-0.8,23.2-3.6,29.1-4.3c2.5-0.3,2.8-0.5,2.8-1.6c0-1.9,3.8-8.8,5.8-10.5c1.8-1.6,1.8-1.6,1.8-6.4c0-4.5,0.1-4.9,1.5-6.2c0.8-0.8,1.9-1.5,2.4-1.7c0.7-0.3,0.9-1,0.9-3.4c0-2.2,0.4-3.8,1.3-5.7c1.5-3,2.4-3.4,3.6-1.5c0.8,1.2,0.8,1.2,3,0.2l2.3-1l-0.3-8.4l-0.3-8.4l-2.9-7.6c-1.6-4.2-3.8-11.2-4.9-15.7c-1.7-7-2.3-8.5-4.2-11.1c-1.2-1.7-3.3-3.8-4.6-4.7l-2.4-1.7l-1.5,1.1c-0.8,0.5-3,1.7-4.9,2.6l-3.5,1.6l-1.8,4.5c-1.9,4.9-6.4,11.6-8.2,12.1c-1,0.3-5.9-1.9-7-3.3c-0.4-0.5-0.4-2.4-0.2-5.6l0.4-4.8l3.1-1.1l3.1-1.1l1.3-5.4c1.2-5.1,1.4-5.5,3.5-6.9l2.2-1.6l-0.1-8.9c-0.2-8.6-0.2-9-1.6-11c-0.8-1.1-2-2.4-2.7-2.9c-0.6-0.4-1.6-1.7-2.1-2.7c-1-2.4-0.2-3.6,2.1-3.1c1.3,0.3,1.6,0.1,1.8-1.1c0.3-1.2,0.1-1.7-1.9-3.3c-1.2-1-2.9-3-3.6-4.5c-1.3-2.6-1.4-2.6-3.9-2.6c-3.8,0-9.8-2.2-15.3-5.7c-3.9-2.4-5.2-3-7.2-3c-1.3,0-2.5,0.2-2.7,0.5c-0.6,1-1.7,0.6-4.9-1.9c-1.7-1.3-3.3-2.4-3.5-2.4C167,88.1,165.9,88.8,164.7,89.6z"/></g></g></g>
</svg>