<?xml version="1.0" encoding="utf-8"?>
<!-- Svg Vector Icons : http://www.onlinewebfonts.com/icon -->
<!DOCTYPE svg PUBLIC "-//W3C//DTD SVG 1.1//EN" "http://www.w3.org/Graphics/SVG/1.1/DTD/svg11.dtd">
<svg version="1.1" xmlns="http://www.w3.org/2000/svg" xmlns:xlink="http://www.w3.org/1999/xlink" x="0px" y="0px" viewBox="0 0 256 256" enable-background="new 0 0 256 256" xml:space="preserve">
<metadata> Svg Vector Icons : http://www.onlinewebfonts.com/icon </metadata>
<g><g><g><path fill="#000000" d="M78,11.6c-0.2,0.9-0.3,4.4-0.3,7.7v6.1H49.8c-15.4,0-27.9,0.2-27.9,0.4c0,0.3,0.7,2.5,1.5,5l1.5,4.6l-0.8,4.4c-0.5,2.7-0.8,7.6-0.8,12.8c0,7.9,0.1,8.7,1.6,13.5c0.9,2.8,2.4,6.6,3.3,8.3c1.7,3.1,1.7,3.3,2,11.4c0.5,11,3.4,33,5.7,42c1.7,7,1.8,7.5,1.9,17.9l0.1,10.7l-3.2,2.6c-2.4,2-3.2,3-3.2,4c-0.1,2.2,1.7,4.7,5.6,7.9c1.9,1.6,3.8,3.4,4.2,4c0.4,0.8,0.7,10.9,1.1,36.1L43,246l55.4-0.4c49.8-0.4,93.7-1.3,94.4-2c0.2-0.2,0.1-2.5-0.1-5.1c-0.4-6.2-0.9-6.8-9.9-13.1c-5.9-4.2-7-5.2-10.2-9.5c-3-4.1-3.9-4.9-6.3-5.9c-1.5-0.6-3.9-2.2-5.4-3.4c-2.4-2.1-2.9-2.3-5.4-2.3c-2.8,0-2.8,0-5.4-3.3c-1.5-1.8-3-3.9-3.3-4.7c-0.3-0.8-0.6-5.5-0.6-10.4c-0.1-8.3,0-9.2,1.1-11.8c1-2.5,1.1-3.2,0.6-5.3c-0.3-1.4-1.5-3.8-2.8-5.6l-2.3-3.2l1.8-5.4l1.8-5.4l5-3.8c8-6.2,7.4-4.8,7.5-16.4l0.1-9.9l2.5-2.9c2.8-3.3,9.1-8.2,11.1-8.7c0.7-0.2,3.2-2.4,5.8-5.2c2.5-2.7,5.1-5,5.7-5.2c0.8-0.2,1.8-1.2,2.6-2.7c7.5-13,9.7-15,22-20.3c12.7-5.4,24-10.6,24.4-11c0.2-0.2,0.5-1.2,0.7-2.3l0.4-1.9l-3.7,0.3c-2.6,0.3-4.1,0.6-4.9,1.3c-0.6,0.6-1.3,1-1.5,1c-0.3,0-1.2-1.2-2.1-2.7l-1.5-2.7l-8.2,0.2c-5.8,0.2-8.5,0.4-9.2,0.9c-1.8,1.3-2.7,0.9-4-2.2c-1-2.2-1.5-2.8-2.2-2.6c-0.5,0.1-1.6,0.4-2.5,0.6c-1,0.2-2.6,1.4-4.4,3.1c-3.8,3.9-6,5-9.6,4.7c-1.6-0.1-3.7-0.6-4.8-1.1c-1.8-0.8-1.9-1-1.9-2.9v-2.2l-2.2,0.3c-3.2,0.4-5.9-1.1-6.3-3.6c-0.6-3.7-1.4-4.2-3.4-2.2c-0.9,0.9-1.4,1-3.2,0.8c-3-0.5-10.7-4-15.3-7c-3.4-2.2-4.2-2.5-6.6-2.5c-1.9,0-3.1-0.3-3.9-1c-1.1-0.8-1.5-0.9-3.2-0.5c-2.2,0.6-4.7,2.8-4.7,4.1c0,0.8-0.5,0.9-4.6,0.9h-4.6v-1.7c0-1.6-0.2-1.7-1.9-2c-1.1-0.2-3.7-0.3-5.9-0.3H104l-0.4-1.5l-0.4-1.5h-4.5c-4.4,0-4.6-0.1-6-1.6c-1.2-1.3-1.7-2.6-2.9-7.3c-0.7-3.2-1.5-7.5-1.8-9.6c-0.3-2.1-0.7-4.3-0.8-4.9c-0.3-1.3-3-2.7-6.3-3.1L78.4,10L78,11.6z"/></g></g></g>
</svg>