<?xml version="1.0" encoding="utf-8"?>
<!-- Svg Vector Icons : http://www.onlinewebfonts.com/icon -->
<!DOCTYPE svg PUBLIC "-//W3C//DTD SVG 1.1//EN" "http://www.w3.org/Graphics/SVG/1.1/DTD/svg11.dtd">
<svg version="1.1" xmlns="http://www.w3.org/2000/svg" xmlns:xlink="http://www.w3.org/1999/xlink" x="0px" y="0px" viewBox="0 0 256 256" enable-background="new 0 0 256 256" xml:space="preserve">
<metadata> Svg Vector Icons : http://www.onlinewebfonts.com/icon </metadata>
<g><g><g><path fill="#000000" d="M137.8,24.9c-10.4,1.1-70.8,3.3-102.9,3.8c-11.9,0.2-22.3,0.4-23.2,0.6L10,29.6l1.1,2.2c0.8,1.6,1.1,2.9,1,4.9c-0.1,2.7,0,3,3.7,8.5c7.9,11.6,12.1,15.8,16.4,16.5c4.2,0.6,4.9,1.3,4.9,5.1c0,3.1-0.1,3.3-1.7,4.7c-1.3,1.1-2,2.1-2.3,3.9c-0.6,2.4-0.5,2.5,1.5,5.9c3.1,5.1,6.9,9.5,10,11.7l2.7,1.8l1.4,12.7l1.4,12.7l-0.8,36.2c-0.7,34-0.6,43.1,0.5,53.1l0.3,3l29.6-0.3c28.8-0.3,57.4-1.1,95.8-2.7c10.5-0.4,23.1-0.8,28.2-0.8c10.4,0,8.9-0.6,12.1,4.6c1.4,2.3,1.4,2.3,0.7,5.6c-0.6,2.8-1,3.5-2.7,4.9c-3.8,3-4.8,4.1-5.1,5.7l-0.3,1.6l5.4,0.4c3.6,0.3,6.8,0.2,9.5-0.3l4-0.6l1.8-6c1.1-3.6,2-8.1,2.4-11.6c0.4-4.1,0.8-5.9,1.4-6.5c3-3,7.4-6.4,9.5-7.4l2.4-1.2v-3c0-1.6,0.3-3.7,0.6-4.7c0.5-1.4,0.5-2-0.3-3.4c-0.9-1.7-1.1-1.7-3.9-1.7c-2.9,0-3,0-5.1-2.5c-1.4-1.8-2.6-4-3.6-7c-1.5-4.5-1.5-4.5-0.7-7.1l0.9-2.7l-2-3.3c-1-1.8-2.8-5.4-3.9-8.2l-2-4.9l-4.9-0.8c-5.4-0.9-4.6-0.4-14.4-8.5c-5-4.1-5.2-4.3-6.8-8.4c-1.6-4.2-1.6-4.2-0.9-7.1c0.4-1.6,1.8-6,3-9.7c1.2-3.7,2.5-8.1,2.6-9.5l0.4-2.7l-2-1c-1.2-0.6-4.5-1.3-8.9-1.7l-6.9-0.8l-1.2-1.7c-1-1.4-1.2-2.5-1.2-5.6c0-2.2-0.2-4.2-0.5-4.6c-0.3-0.4-2.9-2.2-5.9-4.1c-4.8-3-6.1-4.2-12.5-11.3l-7.1-8l-2.4-7.7c-2.7-8.6-3.3-14.4-2-18.6l0.7-2.2l-2.4-2.9c-1.3-1.6-2.9-4.1-3.6-5.4l-1.3-2.4l-2.7,0.1C142.9,24.5,139.9,24.7,137.8,24.9z"/></g></g></g>
</svg>