<?xml version="1.0" encoding="utf-8"?>
<!-- Svg Vector Icons : http://www.onlinewebfonts.com/icon -->
<!DOCTYPE svg PUBLIC "-//W3C//DTD SVG 1.1//EN" "http://www.w3.org/Graphics/SVG/1.1/DTD/svg11.dtd">
<svg version="1.1" xmlns="http://www.w3.org/2000/svg" xmlns:xlink="http://www.w3.org/1999/xlink" x="0px" y="0px" viewBox="0 0 256 256" enable-background="new 0 0 256 256" xml:space="preserve">
<metadata> Svg Vector Icons : http://www.onlinewebfonts.com/icon </metadata>
<g><g><g><path fill="#000000" d="M151.3,12.4c-18.2,1.5-29.7,2.2-36,2.2l-9.4,0.1v2.3c0,4.5-0.4,5.2-3.5,6.6c-2.8,1.3-2.9,1.3-5.8,7c-2.9,5.6-3,5.7-2.2,7.3c0.5,1,0.8,2.6,0.7,4.2l-0.2,2.6l-2.9,1c-2.8,0.9-3,1.1-6.8,6.8l-4,5.8l0.7,2.2l0.6,2.2l-3.1,3.2l-3.1,3.2l-1.1,6.9c-0.6,3.8-1.3,7.6-1.5,8.5c-0.4,1.4-0.2,2,1,3.8l1.5,2.3l-1.5,1.5l-1.5,1.4l1.4,3.2c1,2.2,1.6,4.7,2,8c0.5,4.8,0.5,4.8-1,7.9c-1.5,3-1.5,3.1-1.2,8.8c0.3,5.3,0.5,6.2,2.6,10.8c1.8,4.1,2.2,5.4,2,6.9c-0.3,1.8-0.2,2,2.1,3.8c2.5,2.1,2.7,2.5,1.8,6.4c-0.5,2.1-0.7,2.6-1.7,2.7l-1.2,0.2l0.9,2.1l1,2.1l-5.1,8.9c-2.8,4.9-7.1,12.4-9.4,16.7l-4.4,7.7l-0.8,8.8c-0.6,6.7-0.6,9.3-0.2,10.6l0.6,1.7l2.9-0.3c1.6-0.2,13.2-0.5,25.8-0.8c13-0.3,27.8-1,34.4-1.5c10.2-0.9,11.6-0.9,12.3-0.2c0.7,0.7,0.7,1.7-0.4,9.2l-1.2,8.4l3.8,3.6c3.3,3.1,3.9,4,4.5,6.4c0.9,3.4,3.7,10.7,4.2,10.7c0.9,0,3.1-2.7,5.4-6.5l2.5-4.2l2,0.9c2,0.9,2.1,0.9,8.8-1.1c7.6-2.2,10.4-2.4,13.6-1c1.7,0.8,3.3,1,7.7,1c5.5,0,5.5,0,5.8-1.3c0.6-2.4-2.8-33.6-5.9-55.2l-3.1-21.3l0.3-18.7c0.2-10.3,0.7-31,1.1-45.9c0.8-29.6,1-53,0.4-71.2L186.8,10l-4.4,0.1C180,10.1,166,11.1,151.3,12.4z"/></g></g></g>
</svg>