<?xml version="1.0" encoding="utf-8"?>
<!-- Svg Vector Icons : http://www.onlinewebfonts.com/icon -->
<!DOCTYPE svg PUBLIC "-//W3C//DTD SVG 1.1//EN" "http://www.w3.org/Graphics/SVG/1.1/DTD/svg11.dtd">
<svg version="1.1" xmlns="http://www.w3.org/2000/svg" xmlns:xlink="http://www.w3.org/1999/xlink" x="0px" y="0px" viewBox="0 0 256 256" enable-background="new 0 0 256 256" xml:space="preserve">
<metadata> Svg Vector Icons : http://www.onlinewebfonts.com/icon </metadata>
<g><g><g><path fill="#000000" d="M16.9,70.1c-0.3,1.2-7.1,71.7-6.9,71.9c0.1,0.1,12.5,1.2,27.5,2.4l27.3,2.2v1.8c0,1-0.4,8.8-0.8,17.4c-0.5,8.6-0.7,15.7-0.5,15.9c0.7,0.7,30.6,1.7,95.5,3.1c37.8,0.9,72.8,1.6,77.9,1.6h9.2l-2.3-2.7c-3.5-4.1-6-8.3-6-10.1c0-0.9-0.6-2.7-1.2-4c-1.8-3.6-3.8-11.5-4.2-16.8c-0.2-2.6-0.9-6.3-1.5-8.5c-0.7-2.1-1.5-5.7-1.7-7.9c-0.3-3.2-0.8-4.9-2.3-7.4c-1-1.8-2.2-4.8-2.7-6.7c-0.5-1.8-1.8-6.4-3.2-10.1c-1.3-3.7-2.7-8.8-3.2-11.3l-0.8-4.5l-2.3-0.3c-2.3-0.3-2.3-0.3-3.4-3.1c-1.3-3.3-2.8-4.4-9.4-6.5c-2.4-0.8-5.1-1.9-6.1-2.7c-1.7-1.2-1.7-1.2-7.1-0.7c-3,0.4-7,1.1-8.9,1.7c-2.8,0.9-3.7,1-4.4,0.6c-0.5-0.4-2.5-1.6-4.5-2.8c-1.9-1.2-4.7-3.2-6.1-4.5l-2.4-2.3l-9.1,0.4c-9.4,0.4-34.2-0.7-66.7-2.8c-8.7-0.6-24.1-1.5-34.2-2.1S30.8,70.3,27.1,70C18.5,69.4,17.1,69.4,16.9,70.1z"/></g></g></g>
</svg>