<?xml version="1.0" encoding="utf-8"?>
<!-- Svg Vector Icons : http://www.onlinewebfonts.com/icon -->
<!DOCTYPE svg PUBLIC "-//W3C//DTD SVG 1.1//EN" "http://www.w3.org/Graphics/SVG/1.1/DTD/svg11.dtd">
<svg version="1.1" xmlns="http://www.w3.org/2000/svg" xmlns:xlink="http://www.w3.org/1999/xlink" x="0px" y="0px" viewBox="0 0 256 256" enable-background="new 0 0 256 256" xml:space="preserve">
<metadata> Svg Vector Icons : http://www.onlinewebfonts.com/icon </metadata>
<g><g><g><path fill="#000000" d="M74.5,10.6c-0.1,0.4-2.9,11.2-6.1,24c-3.2,12.8-7,27.2-8.3,32c-1.3,4.8-3.7,13.8-5.4,20.1l-3,11.4l6.7,10.1c3.7,5.5,21,31.3,38.3,57.3c17.4,25.9,36,54.1,41.5,62.5c5.4,8.5,10.3,15.9,10.9,16.7l1.1,1.2l0.9-1.2c0.8-1,1-2.8,1.3-9.7c0.2-4.7,0.6-9.4,0.8-10.6c0.3-1.1,0.5-3.7,0.5-5.7c0-3.4,0.1-3.8,1.5-5.2c1.9-1.9,4.1-2.5,5.7-1.5c0.7,0.4,1.9,0.9,2.9,1.1c1.3,0.3,1.9,0.8,2.6,2.2c0.6,1.2,1.3,1.9,2,2c2,0.3,3.3-3.8,4.9-15.3c1.8-13.2,3.3-21,7-37.4c3.2-14.5,6.2-29.7,8.7-45c0.9-5.2,3.9-20.8,6.7-34.6c7-34.1,8-39.6,8.3-43.2l0.3-3.1l-5.7-1.4c-3.1-0.8-10.9-2.4-17.2-3.7c-11.4-2.2-29.1-5.9-51.8-11c-6.4-1.4-21.1-4.9-32.8-7.7C85.1,12.3,75.4,10,75.1,10C74.9,10,74.6,10.3,74.5,10.6z"/></g></g></g>
</svg>