<?xml version="1.0" encoding="utf-8"?>
<!-- Svg Vector Icons : http://www.onlinewebfonts.com/icon -->
<!DOCTYPE svg PUBLIC "-//W3C//DTD SVG 1.1//EN" "http://www.w3.org/Graphics/SVG/1.1/DTD/svg11.dtd">
<svg version="1.1" xmlns="http://www.w3.org/2000/svg" xmlns:xlink="http://www.w3.org/1999/xlink" x="0px" y="0px" viewBox="0 0 256 256" enable-background="new 0 0 256 256" xml:space="preserve">
<metadata> Svg Vector Icons : http://www.onlinewebfonts.com/icon </metadata>
<g><g><g><path fill="#000000" d="M103.3,11.8c-0.5,1.1-1,2.5-1.3,3.2c-0.5,1.2-0.5,1.2-1.6,0.3c-0.6-0.5-2.1-1.8-3.2-2.9l-2.1-1.9l-2.9,3.9l-2.9,3.9l0.1,11c0,6.1,0.3,15.6,0.6,21.1l0.6,10l3.7,5.2l3.7,5.2v8.3v8.3l-7.3,9.9l-7.3,9.9l-5,2.2l-5,2.2v2.4c0,1.9,0.5,3.1,2.3,5.9l2.3,3.5v15.5c0,13.3-0.3,18.3-1.7,35.7c-1,11.1-1.9,24.2-2.1,29l-0.3,8.9l1.9,2.6l1.9,2.5l-0.3,8.9c-0.2,6.2-0.6,9.9-1.2,12.4l-1,3.5l1.2,0.9c0.7,0.5,1.9,1.3,2.9,1.8L81,246l36.8-10.5l36.8-10.5l3.1-5.1l3.1-5l7.3-3.4c9.2-4.2,9.9-4.9,12.8-13.8c1.2-3.5,2-6.5,1.7-6.7c-0.2-0.2-2.2-1-4.5-1.8c-2.3-0.8-4.4-1.6-4.7-1.9c-0.4-0.3-1-3.1-1.4-6.2c-0.5-3.1-0.9-5.7-1-5.7c-0.1-0.1-3.5-1.1-7.5-2.3c-4.1-1.1-7.4-2.2-7.5-2.2c-0.1-0.1-0.4-2.6-0.8-5.7c-0.6-4.8-2.8-12.5-16.4-56.1c-8.7-27.8-19.2-61.4-23.4-74.6l-7.6-24.1l-1.9-0.2C104.2,9.9,104,10,103.3,11.8z"/></g></g></g>
</svg>