<?xml version="1.0" encoding="utf-8"?>
<!-- Svg Vector Icons : http://www.onlinewebfonts.com/icon -->
<!DOCTYPE svg PUBLIC "-//W3C//DTD SVG 1.1//EN" "http://www.w3.org/Graphics/SVG/1.1/DTD/svg11.dtd">
<svg version="1.1" xmlns="http://www.w3.org/2000/svg" xmlns:xlink="http://www.w3.org/1999/xlink" x="0px" y="0px" viewBox="0 0 256 256" enable-background="new 0 0 256 256" xml:space="preserve">
<metadata> Svg Vector Icons : http://www.onlinewebfonts.com/icon </metadata>
<g><g><g><path fill="#000000" d="M42.8,5.8c-0.5,2.1-7.9,57.9-15.3,113.7c-7.2,54.9-12.5,93.3-15.8,115.4c-1.1,6.9-1.8,12.7-1.7,12.8c0.4,0.4,27.8,3.9,29,3.8c0.9-0.2,1.2-1.1,2.3-9.5c0.6-5.1,1.3-9.4,1.4-9.6c0.2-0.1,7.2,0.9,15.7,2.2c18.4,2.8,40.5,5.9,40.9,5.5c0.2-0.2,0-2.7-0.3-5.7c-0.3-3-0.5-5.6-0.4-5.7c0.5-0.5,19.1,1,46.5,3.9c22.8,2.4,33.5,3.2,55.7,4.3c15.2,0.8,27.7,1.3,27.8,1.2c0.9-0.9,9.2-115.6,12.3-169.7c0.4-8,1-16.1,1.1-17.9l0.3-3.4l1.8,0.4l1.8,0.3V36.7V25.8l-31.2-2.3c-29.1-2.1-36-2.9-100.5-10.6C76.1,8.3,44.5,4.6,44,4.6C43.5,4.6,43,5.1,42.8,5.8z"/></g></g></g>
</svg>