<?xml version="1.0" encoding="utf-8"?>
<!-- Svg Vector Icons : http://www.onlinewebfonts.com/icon -->
<!DOCTYPE svg PUBLIC "-//W3C//DTD SVG 1.1//EN" "http://www.w3.org/Graphics/SVG/1.1/DTD/svg11.dtd">
<svg version="1.1" xmlns="http://www.w3.org/2000/svg" xmlns:xlink="http://www.w3.org/1999/xlink" x="0px" y="0px" viewBox="0 0 256 256" enable-background="new 0 0 256 256" xml:space="preserve">
<metadata> Svg Vector Icons : http://www.onlinewebfonts.com/icon </metadata>
<g><g><g><path fill="#000000" d="M94.9,15.1l-4.5,5.1v6.7v6.7l-4.4,6.9c-4.2,6.6-4.4,7-4.7,10.6l-0.3,3.7l2.8,2.8l2.9,2.8l-0.3,3.6c-0.5,7.2-0.2,6.7-5.5,9.3c-2.6,1.3-4.8,2.4-4.8,2.5c-0.1,0.1,0.6,2.5,1.5,5.4c0.9,3,1.8,6.8,2.2,8.5l0.6,3.1l6,0.7l6,0.7l2.1,5.7l2.1,5.7l13,8.7l13,8.7v2.1c0,2-0.3,2.3-6.6,8.2c-7.7,7.1-12.4,13.3-17.5,22.7l-3.4,6.3l-7.3,4.3c-4.1,2.3-7.5,4.5-7.7,4.9c-0.2,0.4-1.2,4.3-2.2,8.7l-1.7,7.9l2.4,5c2.4,4.8,2.6,5.1,9.6,11.3l7.2,6.4l10.5,4.9l10.5,4.8l8.6,1.4c4.7,0.8,8.8,1.5,9,1.7c0.3,0.1,0.6,1.6,0.7,3.2c0.2,2.8,0.1,3.1-1.5,5.1l-1.7,2.2l0.7,5.7l0.7,5.8l1.8,0.2c1.8,0.2,2.1-0.1,6.5-5.1l4.6-5.3l1.7-10.5l1.7-10.5l6.3-9.2c5.3-7.9,7.2-11.2,12.8-23.1l6.6-13.9l2.5-12.2l2.5-12.2l-1.5-2.7l-1.5-2.7l-0.3-20.4l-0.3-20.3l-3.4-7.2c-1.9-4-3.6-7.2-3.8-7.2c-0.3,0-1.4,0.7-2.6,1.5c-1.9,1.3-3,1.6-8.1,2.3c-5.8,0.7-5.9,0.7-7.1-0.4l-1.2-1.1l1.2-0.9c0.7-0.6,3.9-3.4,7.2-6.4l6.1-5.5v-2.7c0-1.5-0.4-6-0.8-9.9c-0.8-7-0.8-7.4,0.3-13.5c0.9-5,1-7.2,0.7-10.6l-0.4-4.4l-5.5-2.5c-4.4-2-7.6-2.9-15.9-4.7c-15.8-3.4-25.5-6.5-34.7-10.9c-4.4-2.1-8.1-3.8-8.3-3.8S97.3,12.3,94.9,15.1z"/></g></g></g>
</svg>