<?xml version="1.0" encoding="utf-8"?>
<!-- Svg Vector Icons : http://www.onlinewebfonts.com/icon -->
<!DOCTYPE svg PUBLIC "-//W3C//DTD SVG 1.1//EN" "http://www.w3.org/Graphics/SVG/1.1/DTD/svg11.dtd">
<svg version="1.1" xmlns="http://www.w3.org/2000/svg" xmlns:xlink="http://www.w3.org/1999/xlink" x="0px" y="0px" viewBox="0 0 256 256" enable-background="new 0 0 256 256" xml:space="preserve">
<metadata> Svg Vector Icons : http://www.onlinewebfonts.com/icon </metadata>
<g><g><g><path fill="#000000" d="M162.9,39.8c-4,1.1-8.6,2.5-10.2,3c-2,0.7-4.4,1-6.9,1c-4,0-12,1.7-16.3,3.6c-3.9,1.6-7.1,4.4-10.8,8.9c-4.2,5.3-9.3,13-11.7,17.7c-1.5,3-2.9,4.6-7.7,9.2c-5.9,5.5-6,5.6-6,7.9c0,1.3,0.4,2.9,0.8,3.5c1,1.4,3.7,2.6,5.9,2.6c1.4,0,1.5,0.2,1.5,1.6c-0.1,0.9-0.5,2.5-1,3.4c-1.1,2.1-0.9,3.4,1.1,6.5c2.6,4.1,0.4,7.9-4.5,7.9c-1.7,0-2.3,0.3-3.6,2c-0.9,1-2.3,3.3-3.2,5c-1,1.7-2.6,3.8-3.7,4.7c-1.7,1.4-2.4,1.6-6.6,2c-4.8,0.4-8.6,1.6-11.9,3.9c-1.8,1.3-4.3,1.1-6.6-0.5c-1.3-0.9-2.3-1.1-7.1-1.1c-7.3,0-10.7,0.6-19.7,3.4c-7.3,2.3-14.1,5.5-13.7,6.6c0.2,0.3,1,2.9,2,5.8c1.7,5.2,1.7,5.2,3.3,5.2c1.5,0,1.7,0.2,3,3.6l1.4,3.6l-1.5,1.6c-2.7,2.9-4.7,5.7-5,7.2c-0.2,0.8-1.5,2.4-2.9,3.6c-2.5,2.1-5.1,4.7-7,6.8c-0.5,0.6-1.6,1.6-2.6,2.4l-1.7,1.3l0.6,5.8c0.4,3.2,0.7,5.9,0.8,6.1c0.8,0.7,79.1-14.9,111.6-22.2c9.4-2.2,17.6-3.9,18-3.9c0.5,0,1.7,1,2.7,2.3c1.8,2.2,2,2.3,5.3,2.4l3.4,0.2l1.4,5.4c1.2,4.7,1.6,5.6,3.4,7.2c1.6,1.5,2.6,2,4.8,2.3c1.5,0.2,3.2,0.8,3.8,1.3c2.4,2.2,12.1,5.6,20,7.2c1.7,0.4,4.3,1.3,5.7,2.2c3.1,1.8,3.4,3,2.6,8.6c-0.3,1.8-0.4,4.7-0.2,6.3c0.6,4.5,1.3,4.5,17.1-0.9l8.3-2.9l10.2-7.6c9.8-7.4,17.1-14,16.2-14.6c-0.3-0.2-2-0.9-3.9-1.5l-3.3-1.3l-3.8,3.8c-3.4,3.4-4.5,4.2-11.2,7.4c-7.9,3.8-8.6,4-14.1,2.8c-1.4-0.3-1.9,0-5.6,3.8c-2.6,2.6-4.6,4.2-5.4,4.3c-2,0.2-2-1.4,0-3.4c2.1-2.1,1.9-3.2-1-6.5l-2-2.3l1-1.7c0.8-1.5,0.9-3,0.9-10c0-7.5-0.1-9-1.8-16.9c-3.8-17.9-3.9-19.2-3.2-31.8c0.3-6.2,0.8-12.8,1-14.6c0.5-3.1,0.3-4-2.4-14l-2.9-10.6l-3.2-1.4c-1.8-0.8-3.2-1.5-3.2-1.7s0.3-1.4,0.7-2.8c0.7-2.3,0.7-2.6-0.4-5.1c-0.7-1.4-2.1-4.2-3.2-6.2l-2.1-3.5l0.9-3.7c0.9-3.4,0.9-4,0.2-8.3c-0.4-2.6-1.7-7.4-3-10.8c-1.4-3.8-2.4-7.5-2.6-9.8c-0.4-4.5-0.7-5.4-1.4-5.3C170.3,37.8,166.8,38.7,162.9,39.8z"/></g></g></g>
</svg>