<?xml version="1.0" encoding="utf-8"?>
<!-- Svg Vector Icons : http://www.onlinewebfonts.com/icon -->
<!DOCTYPE svg PUBLIC "-//W3C//DTD SVG 1.1//EN" "http://www.w3.org/Graphics/SVG/1.1/DTD/svg11.dtd">
<svg version="1.1" xmlns="http://www.w3.org/2000/svg" xmlns:xlink="http://www.w3.org/1999/xlink" x="0px" y="0px" viewBox="0 0 256 256" enable-background="new 0 0 256 256" xml:space="preserve">
<metadata> Svg Vector Icons : http://www.onlinewebfonts.com/icon </metadata>
<g><g><g><path fill="#000000" d="M21.2,54.8c-0.6,1.8-10.5,117.3-10.8,125.5l-0.4,9.6l1.7,0.3c1,0.2,28.5,2,61.2,4.2c57.5,3.7,61.1,3.9,111.2,5.4c28.5,0.8,54.1,1.6,56.8,1.8l5.1,0.3l-0.4-7.9c-0.3-7-0.6-8.7-2.4-15.2c-2.7-9.7-5.9-33.4-6.5-47.1l-0.4-9.4l-2.1-3.4c-1.3-2.1-2.8-5.4-3.8-8.8c-1.6-5.4-1.6-5.5-1.6-16.4c0-7.3,0.3-12.2,0.7-14.7l0.7-3.8l-2-5.4c-1.1-3-2.2-5.6-2.4-5.8c-0.2-0.2-12.8-0.6-28-0.9c-54.6-1.1-107.8-3.4-148.3-6.4c-13.1-1-24.8-1.9-26-2C22.1,54.2,21.3,54.3,21.2,54.8z"/></g></g></g>
</svg>