<?xml version="1.0" encoding="utf-8"?>
<!-- Svg Vector Icons : http://www.onlinewebfonts.com/icon -->
<!DOCTYPE svg PUBLIC "-//W3C//DTD SVG 1.1//EN" "http://www.w3.org/Graphics/SVG/1.1/DTD/svg11.dtd">
<svg version="1.1" xmlns="http://www.w3.org/2000/svg" xmlns:xlink="http://www.w3.org/1999/xlink" x="0px" y="0px" viewBox="0 0 256 256" enable-background="new 0 0 256 256" xml:space="preserve">
<metadata> Svg Vector Icons : http://www.onlinewebfonts.com/icon </metadata>
<g><g><g><path fill="#000000" d="M215.7,79.4c-10.2,2.6-41.5,9.3-62.8,13.5c-13.3,2.7-33.6,5.8-50,7.7c-6,0.7-13.5,1.8-16.6,2.4c-4.7,0.9-6.2,1-8.8,0.5c-1.7-0.3-3.3-0.6-3.4-0.6c-0.2,0-0.4,2-0.5,4.5l-0.3,4.5l-2.3,2c-1.3,1.2-3,3.3-3.7,4.9c-1.3,2.6-1.4,2.7-3,2.5c-2.9-0.4-4.8,0.5-6.5,3.2c-1.4,2.2-1.9,2.6-3.2,2.6c-0.9,0-2-0.4-2.5-0.9c-1-0.9-1.1-0.8-4.2,2.4c-2.6,2.6-3.3,3.8-3.5,5.4c-0.3,1.9-0.6,2.2-3.5,3.6c-1.7,0.8-4.8,2.8-6.7,4.4c-1.9,1.5-4.7,3.3-6.2,3.8c-1.4,0.5-4.2,1.9-6.1,3.2c-3.4,2.2-3.4,2.3-3.7,5c-0.4,2.8-0.4,2.8-2.6,3.3c-3.5,0.9-4.8,2.4-5.2,5.9l-0.4,3l4.6-0.4c6.8-0.5,13-1.2,20.4-2.4c7.5-1.2,11-2.5,22.7-8.4c7.2-3.6,7.8-3.8,12.8-4.4c2.9-0.3,11.1-0.7,18.2-0.9l12.9-0.3l2.2,1.5c1.3,0.9,2.6,2.4,3.3,4c1.2,2.5,1.2,2.5,3.3,2.2c1.1-0.2,6.9-0.9,12.8-1.6c8.9-1.1,11.1-1.2,13-0.7c4.2,1,20.6,11.3,28.3,17.7c3.8,3.2,7.4,6,7.9,6.4c0.8,0.5,1.8,0.5,5.1-0.4c2.3-0.6,5.6-1.2,7.5-1.4l3.4-0.4l0.6-2.8c1.4-6.2,3.4-11.3,5.9-14.7c3.2-4.4,10.9-10.7,16.4-13.4c3.7-1.8,4.5-2,7.9-2h3.7l2.2-3.4c3-4.7,5.1-8.7,4.8-9.1c-0.2-0.2-1.3,0.7-2.6,1.8l-2.3,2.1l-0.6-1.3c-0.6-1.2-0.9-1.3-3.7-1.3c-3,0-3.1,0-2.8-1.2c2.4-7.2,2.6-8.4,2-9.2c-0.4-0.5-1.2-0.9-1.9-0.9c-0.9,0-1.4-0.4-1.6-1.2c-0.5-1.8-0.4-2,0.9-1.2c0.7,0.4,2.5,0.9,4.1,1.1c2.4,0.3,3.4,0.2,5.7-0.8c2.5-1,2.9-1.4,3.8-3.5c0.6-1.3,1.2-3,1.3-3.8c0.3-1,1-1.7,2.4-2.5c2.3-1.1,2.8-2.4,2.4-6.2c-0.3-2.5-0.3-2.5,1.3-2.5c1.1,0,1.4-0.2,1.2-0.8c-0.2-0.5-0.3-1.1-0.3-1.5s-1-1.8-2.3-3.2c-2.6-2.8-6.8-10.2-8.6-15.1c-0.8-2.2-1.5-3.4-2-3.4C226,76.9,221.1,78,215.7,79.4z"/><path fill="#000000" d="M240.5,99.4c-0.2,0.3,0.4,1.9,1.3,3.7c1.4,2.7,1.7,4.1,2.2,8.7c0.4,4.4,0.4,5.6-0.2,6.3c-0.4,0.4-0.9,0.8-1.1,0.8c-0.6,0-7.3,5.5-8.8,7.1c-0.9,1-0.9,1.1,0,1.1c0.5,0,2.2-1.2,3.7-2.6c1.5-1.4,4-3.2,5.6-3.9l2.9-1.3l-0.2-5.9c-0.2-5.8-0.3-6-2.4-10.2c-1.2-2.3-2.3-4.2-2.4-4.2C240.9,98.9,240.7,99.1,240.5,99.4z"/></g></g></g>
</svg>