<?xml version="1.0" encoding="utf-8"?>
<!-- Svg Vector Icons : http://www.onlinewebfonts.com/icon -->
<!DOCTYPE svg PUBLIC "-//W3C//DTD SVG 1.1//EN" "http://www.w3.org/Graphics/SVG/1.1/DTD/svg11.dtd">
<svg version="1.1" xmlns="http://www.w3.org/2000/svg" xmlns:xlink="http://www.w3.org/1999/xlink" x="0px" y="0px" viewBox="0 0 256 256" enable-background="new 0 0 256 256" xml:space="preserve">
<metadata> Svg Vector Icons : http://www.onlinewebfonts.com/icon </metadata>
<g><g><g><path fill="#000000" d="M210.3,15.2c-4.5,3-10.7,6.9-13.8,8.7c-5.1,3.1-6.5,4.2-16.7,14.5l-11.1,11.2l-4.9,1.1c-2.7,0.6-6.7,1.4-9,1.8c-3.1,0.6-6,1.6-11.8,4.4c-6.1,2.9-8.3,3.7-10.8,3.9l-3.1,0.3l-4.9-4.4c-4.4-4-5-4.4-6.5-4.2c-0.9,0.1-4.3,0.5-7.5,0.9l-5.9,0.7l-7.1-4l-7.1-4l-3.9,0.6c-14.2,2.1-61,9.5-61.3,9.8c-0.7,0.6,3.1,39.9,5.8,61.1c1.4,10.9,4.5,37.7,6.9,59.6c2.4,21.9,4.5,40.3,4.6,40.9c0.3,1.1,0.4,1.1,6.3,0.8c3.7-0.2,7.1-0.7,8.8-1.3c1.5-0.5,3.1-0.9,3.6-0.9c0.5,0,2.9,0.9,5.4,2.1l4.6,2.1l2.8,6.1l2.8,6.2h7.4h7.5l2.7,3.1c2.6,2.9,2.8,3.1,5.1,3.1c1.7,0,3.4-0.5,6.3-2l3.9-2l3.6,0.6c2.9,0.4,4.1,0.9,6.2,2.5c1.4,1.1,2.7,2,2.9,2c0.2,0,1.4-1.4,2.7-3c2.1-2.6,3.1-3.4,7.1-5.4c2.6-1.3,5.4-2.5,6.4-2.6l1.6-0.3l0.9,3.9c0.9,3.8,0.9,3.9,3.5,5.2c1.4,0.8,4.8,2.9,7.3,4.7c4.6,3.1,4.9,3.2,8,3.2c3,0,3.4-0.2,4.9-1.7c1.3-1.3,1.6-2.2,1.6-3.6c0-1.7,0.3-2.3,2.3-4l2.3-2l0.3-7.3c0.3-5.1,0.8-9,1.6-12.8c1.2-5,1.5-5.6,3.5-7.7l2.3-2.2l2.3,1.4c1.3,0.7,2.8,2.1,3.4,3c0.9,1.5,1.2,1.7,2.9,1.5c1.2-0.2,1.8-0.5,1.6-0.9c-0.2-0.3-0.4-1.9-0.6-3.5c-0.3-1.8-0.7-3.2-1.3-3.7c-0.8-0.7-1-1.6-1-4.3c0-3.1,0.2-3.6,1.7-5.7c1-1.2,3.3-4.7,5.3-7.7c2-3,4.2-6,5-6.6c1.3-1.2,1.4-1.2,4.2-0.6l2.9,0.7l3.3-2.3c4.9-3.4,11.3-10.9,15.3-17.6l3.3-5.7l0.4-7.7c0.2-4.3,0.7-11,1.1-15.1c0.4-4.1,0.7-10.3,0.7-13.9c0-6.1-0.1-6.9-1.6-11c-1.8-5.1-1.8-5.3,1.7-9.3l2-2.2L229,78.7c-3.2-22.1-10.2-68.6-10.4-68.7C218.5,9.9,214.8,12.3,210.3,15.2z"/></g></g></g>
</svg>