<?xml version="1.0" encoding="utf-8"?>
<!-- Svg Vector Icons : http://www.onlinewebfonts.com/icon -->
<!DOCTYPE svg PUBLIC "-//W3C//DTD SVG 1.1//EN" "http://www.w3.org/Graphics/SVG/1.1/DTD/svg11.dtd">
<svg version="1.1" xmlns="http://www.w3.org/2000/svg" xmlns:xlink="http://www.w3.org/1999/xlink" x="0px" y="0px" viewBox="0 0 256 256" enable-background="new 0 0 256 256" xml:space="preserve">
<metadata> Svg Vector Icons : http://www.onlinewebfonts.com/icon </metadata>
<g><g><g><path fill="#000000" d="M10.8,67.7c-0.2,1.2-0.4,5-0.6,8.5c-0.3,5.2-0.2,6.3,0.4,6.3c0.4,0,7.5,0.5,15.9,1c8.3,0.6,27.1,1.5,41.8,2.1C82.9,86.3,95,86.8,95,86.8s-0.7,8.4-1.7,18.5c-1.7,18.1-3,46.1-2.3,49.5c0.3,1.5,5.7,6.4,8.7,8c1.7,0.9,1.8,0.9,2.5-0.1c0.4-0.5,0.7-1.2,0.7-1.6c0-1.1,0.9-0.8,1.8,0.6c1.1,1.6,3.7,1.8,4.2,0.3c0.3-1.2,0.2-1.2,2.5-0.2l1.8,0.9l-0.3,3.2l-0.4,3.2h3.2c2.1,0,3.8,0.3,5.1,1c1,0.5,3.4,1.2,5.2,1.5c1.8,0.4,4.2,1.2,5.2,1.9c1.1,0.7,2.2,1.3,2.4,1.3c0.2,0,1.1-0.7,2-1.5c1.5-1.5,1.6-1.5,4.3-1c2.5,0.5,2.9,0.8,4.6,3.3c1,1.5,2.3,2.8,2.8,2.8c0.6,0,0.9,0.5,1,1.9c0.2,1.6,0.4,2,1.7,2.3c1.3,0.3,1.7,0.2,3.4-1.4c1.6-1.6,2-1.7,3.2-1.2c0.8,0.3,2.3,0.5,3.3,0.5c1.7,0,2,0.2,2.9,2.1c0.9,2,1.3,2.3,4.4,3.4c4.8,1.7,5.5,1.4,7.3-2.7c1.8-4.3,2.9-4.4,5.1-0.4c0.1,0.1,1.4,0.4,3.1,0.7c1.6,0.3,5.4,1.3,8.3,2.4c4.7,1.6,5.4,1.7,6.8,1.2c1.1-0.5,1.7-1.2,2.2-2.6l0.6-2h3.7c2.1,0,4.4,0.3,5.1,0.6c1.1,0.5,1.5,0.4,3.5-1c2.7-2,3.7-2.1,4.4-0.4c0.5,1.2,0.7,1.3,3.8,1.3s3.4-0.1,4.6-1.6c1-1.3,1.5-1.5,2.7-1.2c0.8,0.2,2.2,1.2,3,2.3c1.7,2.2,5.9,4.7,9.5,5.7c1.3,0.4,2.8,1,3.3,1.3c0.6,0.4,1.2,0.7,1.5,0.7c0.3,0,0.4-11.3,0.2-29.7c-0.3-25.6-0.5-30.7-1.4-37.6c-0.6-4.4-1-10.8-1-14.3c0-4.7-0.3-8-1.3-12.6c-1.4-7.1-2.3-13.8-2.3-17.6c0-1.4-0.2-3.3-0.3-4.1l-0.3-1.5l-44.2-0.2c-41.6-0.1-46.6-0.2-83.5-1.9c-21.6-1-45-2.2-52.1-2.6c-7-0.4-20.2-1.1-29.3-1.5c-9-0.4-17-0.9-17.8-1.1C11.2,65.5,11.1,65.7,10.8,67.7z"/></g></g></g>
</svg>