<?xml version="1.0" encoding="utf-8"?>
<!-- Svg Vector Icons : http://www.onlinewebfonts.com/icon -->
<!DOCTYPE svg PUBLIC "-//W3C//DTD SVG 1.1//EN" "http://www.w3.org/Graphics/SVG/1.1/DTD/svg11.dtd">
<svg version="1.1" xmlns="http://www.w3.org/2000/svg" xmlns:xlink="http://www.w3.org/1999/xlink" x="0px" y="0px" viewBox="0 0 256 256" enable-background="new 0 0 256 256" xml:space="preserve">
<metadata> Svg Vector Icons : http://www.onlinewebfonts.com/icon </metadata>
<g><g><g><path fill="#000000" d="M69,31.6c-2.4,0.9-4.5,1.6-4.6,1.7c-0.1,0.1-2.3,6.6-4.9,14.4c-2.8,8.5-5.7,16.3-7.3,19.4C50.8,70,47.8,77.6,45.5,84c-6.4,18-13.2,31.9-23.7,48.2l-8.5,13.2l-0.7,7c-0.3,3.9-1.1,9.1-1.6,11.6c-0.6,2.5-1,4.8-1,5.2c0,0.4,1,1.9,2.2,3.6c2.1,2.8,2.2,2.9,7.5,4.7c3,1,10.9,3.4,17.5,5.3c6.6,2,18.3,5.4,25.8,7.7c24.1,7.3,60,16.7,100.1,26.3c21.4,5.1,39.1,9.2,39.3,9.2c0.2,0,1.8-6,3.5-13.2c5.8-24.3,14-54.7,15.7-59.1c2.3-5.5,2.1-6.7-1.1-6.7c-1.9,0-2.4-0.3-3.3-1.5c-0.9-1.2-1-1.8-0.6-2.9c0.3-0.8,0.6-2.6,0.8-3.9c0.3-2.1,0.9-3.2,4.1-7.1c2.1-2.5,4.9-5.3,6.2-6.3c2-1.4,2.7-2.3,3.8-5.1c1.7-4,7.1-11.7,11.3-16.2c3-3.1,3-3.2,3-6.2v-3l-2.8-2.1c-2.6-2-2.8-2.4-3.6-5.7c-0.8-3.3-1-3.7-2.5-4.2c-6.1-1.9-22.6-6.3-33.4-8.8L191,71h-13.3c-7.3,0-13.3-0.2-13.3-0.4c0-0.2-0.2-0.7-0.4-1c-0.4-0.5-1.4-0.3-4.7,1c-3.9,1.5-4.6,1.6-8.2,1.3c-2.9-0.3-4.4-0.7-5.9-1.6c-1.5-1-2.3-1.2-3.3-0.9c-0.7,0.2-3,0.3-5.1,0.3c-3.1-0.1-4.2-0.4-5.4-1.3c-1.7-1.3-9-4.4-10.5-4.4c-0.5,0-2.6-0.6-4.7-1.3l-3.8-1.3l-1.6,1.6l-1.6,1.6l-5.3-0.4l-5.2-0.4l-4.8-3.3c-4.7-3.2-5.3-3.9-4.3-4.5c0.3-0.2,0.5-3.1,0.5-7.1C90,42.1,90,42.1,88.2,39l-1.7-3.1L83,35.4l-3.5-0.5l-0.7-2.2C77.8,29.4,75.7,29.2,69,31.6z"/></g></g></g>
</svg>