<?xml version="1.0" encoding="utf-8"?>
<!-- Svg Vector Icons : http://www.onlinewebfonts.com/icon -->
<!DOCTYPE svg PUBLIC "-//W3C//DTD SVG 1.1//EN" "http://www.w3.org/Graphics/SVG/1.1/DTD/svg11.dtd">
<svg version="1.1" xmlns="http://www.w3.org/2000/svg" xmlns:xlink="http://www.w3.org/1999/xlink" x="0px" y="0px" viewBox="0 0 256 256" enable-background="new 0 0 256 256" xml:space="preserve">
<metadata> Svg Vector Icons : http://www.onlinewebfonts.com/icon </metadata>
<g><g><g><path fill="#000000" d="M193.2,53.9C159.1,61.5,63.5,81,47.6,83.5l-10.4,1.7L37,83.7c-0.1-0.9-0.4-4.5-0.6-8.2c-0.2-3.6-0.5-6.5-0.7-6.5c-0.2,0-3.2,2.9-6.6,6.4c-3.9,4-7.1,6.8-8.4,7.4c-3,1.3-10.6,7.1-10.6,8c0,0.4,1.5,10.6,3.3,22.6c2.7,17.8,3.9,24.2,6.4,34c1.7,6.7,4.9,22.1,7.2,34.4c2.3,12.3,4.3,22.4,4.4,22.5c0.1,0.2,2.1-0.1,4.3-0.6c2.2-0.5,9.8-1.5,16.8-2.4c10.6-1.3,21.7-3.3,63.9-11.8c28.1-5.6,60.9-12.1,72.9-14.4c12-2.3,22.2-4.3,22.7-4.4c0.5-0.2,2.1-1.2,3.5-2.3c2.4-1.9,5.3-3.2,12.7-5.8c3.1-1.1,3.3-1.3,5.1-4.5c2.9-5.3,5.5-8.7,9.4-12.2c5.1-4.7,5.1-4.7-3.4-10.5c-6.9-4.7-7.1-4.8-8.1-7.6c-1.2-3.3-1.5-3.6-3.9-3.6c-2.9,0-4.1-0.5-4.1-1.7c0-0.6-0.5-2.6-1-4.4c-0.6-1.8-0.9-3.4-0.7-3.6c0.2-0.2,1.3-0.9,2.7-1.6c2.4-1.3,2.4-1.3,2.6-4.1c0.2-2.5,0-2.9-1.4-4.4c-1.4-1.4-1.5-1.8-1.2-3.6c0.2-1.1,1.3-3.6,2.6-5.5c2.1-3.2,2.2-3.6,2.2-7.1v-3.7l2.8-2.9c1.5-1.5,2.9-3.4,3-4.1c0.2-1.2,0-1.3-3-1.5c-2.7-0.2-3.4-0.5-5.6-2.5c-2.1-1.8-3-3.2-5.4-8.5l-2.9-6.3l-3.6-1.3c-2.4-0.8-4.6-2.1-6.5-3.7c-1.5-1.3-3.1-2.4-3.5-2.4C203.5,51.7,198.7,52.7,193.2,53.9z"/></g></g></g>
</svg>