<?xml version="1.0" encoding="utf-8"?>
<!-- Svg Vector Icons : http://www.onlinewebfonts.com/icon -->
<!DOCTYPE svg PUBLIC "-//W3C//DTD SVG 1.1//EN" "http://www.w3.org/Graphics/SVG/1.1/DTD/svg11.dtd">
<svg version="1.1" xmlns="http://www.w3.org/2000/svg" xmlns:xlink="http://www.w3.org/1999/xlink" x="0px" y="0px" viewBox="0 0 256 256" enable-background="new 0 0 256 256" xml:space="preserve">
<metadata> Svg Vector Icons : http://www.onlinewebfonts.com/icon </metadata>
<g><g><g><path fill="#000000" d="M69.1,21.2c-22.7,6.1-41.4,11.3-41.5,11.7c-0.1,0.4,5.4,20,12.2,43.6l12.4,43l6.1,32.9c6,32.2,6.1,33.4,9.5,63.1c1.9,16.6,3.5,30.4,3.6,30.5c0.1,0.1,9.8-3,21.5-6.9l21.4-7.1l18.1-14.5l18.1-14.5l8.2-12.8c7.1-11.3,8.3-12.9,9.4-12.9c0.7,0,5,0.5,9.6,1.1l8.3,1l21-11c11.5-6.1,21.1-11.3,21.4-11.5c0.3-0.3-8.4-13.9-21.1-33.5l-21.6-33.1l-24.8-31.8L136,26.6l-11.8-8.3c-6.5-4.6-12.2-8.3-12.8-8.3C110.9,10.1,91.8,15,69.1,21.2z"/></g></g></g>
</svg>