<?xml version="1.0" encoding="utf-8"?>
<!-- Svg Vector Icons : http://www.onlinewebfonts.com/icon -->
<!DOCTYPE svg PUBLIC "-//W3C//DTD SVG 1.1//EN" "http://www.w3.org/Graphics/SVG/1.1/DTD/svg11.dtd">
<svg version="1.1" xmlns="http://www.w3.org/2000/svg" xmlns:xlink="http://www.w3.org/1999/xlink" x="0px" y="0px" viewBox="0 0 256 256" enable-background="new 0 0 256 256" xml:space="preserve">
<metadata> Svg Vector Icons : http://www.onlinewebfonts.com/icon </metadata>
<g><g><g><path fill="#000000" d="M95.6,39.1c-12.7,0.4-23,1-28.9,1.7l-9.1,1.1l-12,6c-6.5,3.3-15.6,7.5-20.1,9.4c-8.9,3.8-8.4,3.3-7.9,7.5c0.2,1.7,0.1,1.8-2.6,2.9c-2.4,1-3,1.5-4,3.6c-1,2.1-1.2,2.9-0.9,5.1c0.4,3.4,2.1,5,9.5,9.5l5.4,3.2l4.4-0.3l4.4-0.4l4.7,7.1c2.6,3.9,4.9,7.9,5.2,8.9c0.3,1,2,3.5,3.6,5.5c1.7,2,3.5,4.7,4.1,6c1,2.2,1.1,2.3,7.1,4.6c7.5,3,12.7,6.7,17.1,12.3c2.3,2.9,4,4.4,6.5,6c4.4,2.6,8.3,6.6,10.3,10.6c2.4,4.7,5.5,7.4,12.4,10.7l5.9,2.8l3.9,8.7c2.2,4.8,4.8,11.3,5.8,14.4l1.9,5.8l2.1,0.5c4.5,1.2,5.3,1.6,8.2,4.5c2.8,2.8,3.1,3.4,5.4,10c1.4,3.8,2.7,7.2,3,7.5c0.3,0.3,1.8,1.2,3.5,2.1c3,1.6,3,1.6,4.6,0.7c8.5-5,8.8-5.3,15.3-12.4c3.6-4,6.5-7.6,6.5-8.1s-0.5-2.4-1-4.2c-0.6-1.8-1-3.5-1-3.7c0-0.3,1.6-0.5,3.6-0.5h3.6l5-4.7c2.7-2.6,5.9-5.2,7.1-5.7c1.7-0.8,2.8-2,4.8-5.2c1.5-2.3,4.5-6,6.8-8.4c2.5-2.6,5.1-6,6.7-8.7c2.6-4.4,2.7-4.5,5.7-5.5c1.6-0.6,3.3-1.2,3.5-1.4c0.3-0.2,1.1-1.8,1.7-3.6c1.1-2.9,1.5-3.4,3.5-4.4c1.2-0.6,2.2-1.3,2.2-1.7c0.1-0.4,0.4-4.3,0.7-8.6l0.7-8l3.4-8.2l3.5-8.2l7.2-7.2l7.2-7.3l-13.2-10.7c-12.6-10.1-14.2-11.2-30.2-20.9c-13.8-8.3-17.7-10.4-21-11.4l-4.1-1.2l-22.2,2.6c-12.2,1.4-22.5,2.6-22.8,2.6c-0.4,0-1.6-1.9-2.7-4.2c-1.6-3.2-2.8-4.8-5.1-6.9c-3-2.7-3.1-2.8-6.2-2.7C116.7,38.4,106.4,38.8,95.6,39.1z"/></g></g></g>
</svg>