<?xml version="1.0" encoding="utf-8"?>
<!-- Svg Vector Icons : http://www.onlinewebfonts.com/icon -->
<!DOCTYPE svg PUBLIC "-//W3C//DTD SVG 1.1//EN" "http://www.w3.org/Graphics/SVG/1.1/DTD/svg11.dtd">
<svg version="1.1" xmlns="http://www.w3.org/2000/svg" xmlns:xlink="http://www.w3.org/1999/xlink" x="0px" y="0px" viewBox="0 0 256 256" enable-background="new 0 0 256 256" xml:space="preserve">
<metadata> Svg Vector Icons : http://www.onlinewebfonts.com/icon </metadata>
<g><g><g><path fill="#000000" d="M20,51.1c-1.5,9.3-4,33.9-5.9,58.7c-2,26.9-4.3,63.6-4.1,63.9c0.3,0.2,22.4,1.7,50.5,3.3c9.9,0.6,25.8,1.6,35.4,2.3c9.6,0.7,28.2,1.8,41.2,2.6c23,1.3,24.2,1.3,34.3,0.6l10.5-0.8l2.4,1.9c1.9,1.6,11.2,8.3,13.1,9.4c0.3,0.2,2.3-0.1,4.4-0.6c2.1-0.5,6.4-1.1,9.6-1.3l5.7-0.4l8.2,2.8c4.5,1.5,9.5,3.5,11,4.4c2.5,1.4,2.9,1.9,3.9,4.5c1.4,3.9,1.6,4.2,3.2,3.8l1.3-0.3l-1.1-1.7c-0.7-0.9-1.7-3.1-2.3-4.8l-1.2-3.1l1.8-3.5c1.2-2.4,2.1-5.4,2.8-8.9c0.6-2.9,1-5.3,1-5.4c-0.1,0-1.2-0.9-2.5-1.9c-2.2-1.7-2.4-2.2-2.7-4.6c-0.2-1.5-0.1-4,0.3-5.6c0.6-2.7,0.8-3,2.6-3.7c1.6-0.7,2-1.1,2.3-2.7c0.6-3.7,0.4-68.6-0.3-71.4c-0.5-2.3-1-2.9-4.4-5.8c-4.1-3.4-6.3-6.9-6.3-9.6c0-1.2,0.5-1.8,2.1-3c3.5-2.6,5.1-5,5.1-7.8v-2.5h-3.2c-1.8,0-27.7-0.7-57.6-1.5l-54.4-1.6l-53.2-3.7l-53.3-3.7L20,51.1z"/></g></g></g>
</svg>