<?xml version="1.0" encoding="utf-8"?>
<!-- Svg Vector Icons : http://www.onlinewebfonts.com/icon -->
<!DOCTYPE svg PUBLIC "-//W3C//DTD SVG 1.1//EN" "http://www.w3.org/Graphics/SVG/1.1/DTD/svg11.dtd">
<svg version="1.1" xmlns="http://www.w3.org/2000/svg" xmlns:xlink="http://www.w3.org/1999/xlink" x="0px" y="0px" viewBox="0 0 256 256" enable-background="new 0 0 256 256" xml:space="preserve">
<metadata> Svg Vector Icons : http://www.onlinewebfonts.com/icon </metadata>
<g><g><g><path fill="#000000" d="M241.6,88.9c-1.9,1.5-2.1,1.5-8,1.5c-4.3,0-8.9,0.5-15.6,1.5c-5.2,0.8-13.5,1.9-18.4,2.3c-25.4,2.3-95.3,9.2-109.3,10.8c-8.8,1-17.6,1.8-19.4,1.8h-3.3v3v3l-3.2,0.3c-16,1.3-25,1.9-31.6,1.9H25l-0.4,4.7c-0.3,3.9-1,6.7-3.9,15.6c-2,5.9-3.7,11.9-3.9,13.2c-0.3,2.3-0.5,2.4-3.6,4.2l-3.3,1.9l1.2,2.9c1.2,2.8,1.2,3,0.4,6.3c-0.4,1.9-1,3.7-1.2,4c-0.9,1.1,7.8,0.8,28.4-0.9c10.3-0.8,23.9-1.7,30.1-2.1c6.2-0.3,22.3-1.6,35.7-2.8s27.7-2.5,31.6-2.8c11.2-0.9,30-3.1,39.2-4.7l3.2-0.6v-3.8c0-3.6,0.1-3.9,1.5-4.9c0.8-0.6,2.5-1.4,3.7-1.7c2.2-0.7,2.2-0.7,2.7-3.6c0.5-2.8,0.6-3,3.6-5c1.7-1.1,4.6-2.7,6.6-3.4c2.2-0.8,4.8-2.5,7-4.3c1.9-1.6,5-3.7,6.9-4.5c3.2-1.4,3.4-1.7,4-3.8c0.3-1.2,0.7-2.6,0.8-3c0.3-0.9,7.2-7.2,8-7.2c0.3,0,0.5,0.3,0.5,0.7c0,0.9,1.1,1.3,3.1,1.3c1.2,0,1.7-0.5,3.1-2.8c1.9-3,3.1-3.7,6.9-3.4c2,0.1,2.1,0.1,3-2.3c0.6-1.4,1.7-3.3,2.6-4.3c3-3.4,3.3-4.2,3.3-7.6c0-3.1-0.1-3.2-1.2-3.2C244.1,87.4,242.7,88,241.6,88.9z"/></g></g></g>
</svg>