<?xml version="1.0" encoding="utf-8"?>
<!-- Svg Vector Icons : http://www.onlinewebfonts.com/icon -->
<!DOCTYPE svg PUBLIC "-//W3C//DTD SVG 1.1//EN" "http://www.w3.org/Graphics/SVG/1.1/DTD/svg11.dtd">
<svg version="1.1" xmlns="http://www.w3.org/2000/svg" xmlns:xlink="http://www.w3.org/1999/xlink" x="0px" y="0px" viewBox="0 0 256 256" enable-background="new 0 0 256 256" xml:space="preserve">
<metadata> Svg Vector Icons : http://www.onlinewebfonts.com/icon </metadata>
<g><g><g><path fill="#000000" d="M81.6,13c-0.4,1.6-1.5,16.9-3.6,47c-1.5,22.1-3.6,47-4.1,47.3c-0.4,0.4-31.3-1.7-46.3-3.1l-17.5-1.6l-0.2,1.4c-0.2,1.6,0.7,3.5,1.6,3.5s3.1,2.9,3.9,5.3c0.5,1.5,1.2,2.2,3.1,3.2c1.6,0.8,2.6,1.6,2.8,2.6c0.2,0.7,2.3,3.5,4.7,6.1c3.3,3.6,4.9,5.1,6.7,5.8c1.2,0.5,2.3,1,2.3,1.2c0,0.2,0.7,1.1,1.5,2c0.9,0.9,1.5,2.1,1.5,2.5s0.7,2.1,1.5,3.8c1.3,2.6,1.5,3.6,1.5,7.3c0.1,5.2,0.8,6.9,5.9,12.4c2.5,2.7,4.3,4.1,5.9,4.7c1.3,0.5,3,1.6,3.9,2.6c1.7,1.9,9.7,6.1,10.8,5.7c1.2-0.5,6.3-7.8,6.9-10c0.8-3,2.8-4.9,6.6-6.4c4-1.6,4-1.6,5.5-0.4c0.8,0.6,2.5,1.1,4.7,1.3c7.2,0.7,10.7,1.4,11.9,2.5c0.6,0.6,1.1,1.3,1.1,1.7c0,0.3,2,2.5,4.4,4.9c2.4,2.4,4.4,4.6,4.4,4.9s0.4,0.9,0.8,1.2c0.4,0.4,0.9,1.4,1.1,2.5c0.2,1,1.6,4.8,3.1,8.4c1.5,3.6,2.8,6.9,2.8,7.3c0,0.5,0.8,1.3,1.8,1.8c1.2,0.7,2.5,2.3,3.7,4.5c2.6,4.7,4.7,7.2,6.6,8.1c2.7,1.1,3.3,2.4,2.5,5.2c-0.6,2.1-0.6,2.3,0.3,2.9c1,0.7,1.3,2.4,0.5,3.9c-0.7,1.3,0.2,2.9,1.9,4c1.2,0.7,1.6,1.4,1.9,3.2c0.2,1.3,0.8,3.5,1.4,4.8c0.9,2.1,1.5,2.7,4.1,4c1.6,0.8,4.6,2,6.6,2.5c2,0.6,4.4,1.6,5.4,2.4c1.6,1.2,5,2,10.3,2.2c0.3,0.1,2,1,3.8,2.1l3.2,2.1l1.7-1.3c1.9-1.5,2.1-2.1,1-3.6c-0.4-0.6-1-2.7-1.3-4.8c-0.4-2.1-1.1-5.3-1.6-7.2c-0.6-1.8-1-4.1-1-4.9c0-0.9,1-5.1,2.2-9.5l2.2-7.9L177,204c-2-1.5-0.5-3.1,2.8-3.1c0.7,0,1.7-0.9,3-2.8c1.4-2.2,2.2-2.8,3.2-2.8c1.3,0,6.7-2.9,8.6-4.7c0.6-0.5,3.8-2.3,7.2-3.9c7.7-3.6,10.7-5.5,14.8-9.4c1.7-1.6,4.6-4,6.4-5.2c1.7-1.2,3.3-2.6,3.5-3.1c0.3-1,10.7-5.9,13.8-6.5l2-0.4l-0.3-2.2c-0.3-1.4-0.1-2.8,0.4-3.9c1.1-2.5,2-10.4,1.3-12.1c-0.4-1.1-0.3-1.7,0.9-3.7c1.3-2.2,1.4-2.9,1.4-7c0-4.6-0.1-4.8-2.2-8.4c-1.2-2.1-2.5-4.7-2.8-5.9c-0.3-1.1-1.1-2.9-1.8-4c-1.5-2.4-2.1-6.9-2.8-23.1c-0.6-12.9-0.6-13.2-3.9-12.3c-1.5,0.4-2.1,0.3-4.1-1c-1.3-0.8-3.4-1.8-4.6-2.2c-1.3-0.4-3.3-1.4-4.5-2.5c-2-1.7-2.2-1.8-3.8-1.2c-2.1,0.8-5.8,0.8-6.1,0.1c-0.2-0.4-0.7-0.4-1.7,0.2c-1.1,0.6-2.5,0.7-4.4,0.6c-2.6-0.3-3-0.2-3.3,0.8c-0.5,1.6-2,2.2-4.2,1.6c-5.7-1.5-9.2-2.7-9.9-3.5c-0.4-0.5-0.8-0.7-0.9-0.4c-0.8,1.9-2.4,3.9-3.2,3.9c-1.8,0-5.5-1.9-5.9-3c-0.2-0.8-0.7-1.1-2.2-1.1c-1,0-2.5,0.4-3.3,0.8c-1.8,0.9-4.1,0.2-4.1-1.4c0-0.5-0.2-0.9-0.5-0.9c-0.3,0-0.9-0.7-1.4-1.5c-0.7-1.2-1.2-1.5-2.6-1.5c-0.9,0-2.2,0.3-2.9,0.6c-1,0.5-1.5,0.4-2.5-0.2c-0.7-0.4-3.6-1.3-6.5-2l-5.3-1.2l0.2-1.7c0.2-1.7,0.1-1.8-2.3-1.7c-0.8,0.1-1.8-0.2-2.2-0.5c-0.5-0.5-0.7-0.5-0.7-0.1c0,0.8-1.8,0.7-3.5-0.2c-0.8-0.4-2.2-1.5-3.1-2.6l-1.7-1.8l0.3-11.2c0.2-6.2,0.8-15.5,1.3-20.7c0.6-5.2,1.1-9.7,1.1-9.8c0-0.2-4.6-0.5-10.1-0.7c-14.2-0.5-31.9-1.2-37.5-1.6C82,11.7,81.9,11.8,81.6,13z"/><path fill="#000000" d="M185.3,197.5c-3.3,3.5-8.4,12.8-8.3,15.1c0,0.5,0.5-0.4,1-1.9c0.6-1.5,2.9-5.4,5.1-8.7c2.3-3.2,4-5.9,3.9-6C186.9,195.9,186.1,196.5,185.3,197.5z"/><path fill="#000000" d="M176.1,221.2c0.2,4,0.5,5.9,1.5,8.5c0.7,1.8,1.4,4.9,1.6,6.8c0.2,2,0.5,3.4,0.7,3.2c0.7-0.7-0.1-6-1.5-10.1c-0.8-2.5-1.7-6.4-2-9l-0.5-4.6L176.1,221.2z"/></g></g></g>
</svg>