<?xml version="1.0" encoding="utf-8"?>
<!-- Svg Vector Icons : http://www.onlinewebfonts.com/icon -->
<!DOCTYPE svg PUBLIC "-//W3C//DTD SVG 1.1//EN" "http://www.w3.org/Graphics/SVG/1.1/DTD/svg11.dtd">
<svg version="1.1" xmlns="http://www.w3.org/2000/svg" xmlns:xlink="http://www.w3.org/1999/xlink" x="0px" y="0px" viewBox="0 0 256 256" enable-background="new 0 0 256 256" xml:space="preserve">
<metadata> Svg Vector Icons : http://www.onlinewebfonts.com/icon </metadata>
<g><g><g><path fill="#000000" d="M68.8,37.6c-3,15.2-6.8,34.5-8.3,43c-1.5,8.5-3.6,19-4.6,23.4c-1,4.4-2.7,13.9-3.9,21c-1.9,11.9-7.9,42.6-12.6,64.9c-1.7,8-5.4,28.1-5.2,28.3c0.1,0,13.2,2.4,29.4,5.3c16.1,2.8,43,7.7,59.8,10.8c28.4,5.2,75.6,12.4,76.3,11.7c0.8-0.8,2.8-13.8,8.4-55.5c2.3-16.7,5.4-39.2,6.9-50c1.5-10.9,3.6-28.3,4.6-38.8c1-10.5,1.9-19.9,2.1-20.9c0.3-1.9,0.3-1.9-1.9-2.2c-1.2-0.2-12.9-1.5-26.1-2.9c-32.8-3.5-34.1-3.7-34.5-4.1c-0.3-0.2,0.6-6.4,1.9-13.7c2.4-13.9,5.1-32,4.8-32.4c-0.1-0.1-3.2-0.6-7-1.2c-6.3-0.9-21.7-3.6-65.9-11.3c-9.5-1.6-17.7-3-18-3C74.6,10,72.5,19.4,68.8,37.6z"/></g></g></g>
</svg>