<?xml version="1.0" encoding="utf-8"?>
<!-- Svg Vector Icons : http://www.onlinewebfonts.com/icon -->
<!DOCTYPE svg PUBLIC "-//W3C//DTD SVG 1.1//EN" "http://www.w3.org/Graphics/SVG/1.1/DTD/svg11.dtd">
<svg version="1.1" xmlns="http://www.w3.org/2000/svg" xmlns:xlink="http://www.w3.org/1999/xlink" x="0px" y="0px" viewBox="0 0 256 256" enable-background="new 0 0 256 256" xml:space="preserve">
<metadata> Svg Vector Icons : http://www.onlinewebfonts.com/icon </metadata>
<g><g><g><path fill="#000000" d="M122.6,24.5c-31,8-56.5,14.7-56.7,14.8c-0.2,0.2,0.5,5,1.4,10.7c1.6,10.3,1.7,10.6,7,24.7l5.3,14.3l1.8,11.3l1.8,11.3l-2.2,8.6l-2.1,8.6l5.9,10.1c5.5,9.4,9.1,17.1,9.1,19.5c0,0.6-0.7,3.6-1.6,6.7c-0.9,3.1-1.5,5.7-1.4,5.8c0.1,0.1,3.4,1.6,7.4,3.4c4,1.8,7.4,3.4,7.6,3.6c0.2,0.2,2.7,9.9,5.5,21.6c4,16.5,5.5,24,6.9,33.5c1,6.7,1.8,12.5,1.8,12.8c0,0.3,2.9,0.4,8.1,0.1c6.7-0.3,10.6-0.9,23.4-3.4c8.4-1.6,15.5-3.1,15.6-3.2c0.2-0.2-0.4-1.7-1.1-3.5l-1.4-3.3l1.1-3.8c0.8-3,1.1-6,1.4-13.8l0.3-10l-2.1-2.8l-2.1-2.8l0.3-9c0.2-5,1.1-18.3,2.1-29.6c1.6-18.9,1.7-22.1,1.7-40.7V99.8l-2.4-3.5c-2.1-3.2-2.3-3.7-2.2-6.2l0.2-2.7l5.4-2.4l5.4-2.4l8.1-8.7l8-8.7V56v-9.1l-4.1-5.8l-4.1-5.9l-0.5-9.4c-0.8-13.4-1-15.9-1.7-15.8C179.3,10,153.7,16.6,122.6,24.5z"/></g></g></g>
</svg>