<?xml version="1.0" encoding="utf-8"?>
<!-- Svg Vector Icons : http://www.onlinewebfonts.com/icon -->
<!DOCTYPE svg PUBLIC "-//W3C//DTD SVG 1.1//EN" "http://www.w3.org/Graphics/SVG/1.1/DTD/svg11.dtd">
<svg version="1.1" xmlns="http://www.w3.org/2000/svg" xmlns:xlink="http://www.w3.org/1999/xlink" x="0px" y="0px" viewBox="0 0 256 256" enable-background="new 0 0 256 256" xml:space="preserve">
<metadata> Svg Vector Icons : http://www.onlinewebfonts.com/icon </metadata>
<g><g><g><path fill="#000000" d="M163.2,64.9c0,3.3-0.6,6.1-1.2,6.1c-0.3,0-4.3-1.5-8.9-3.3l-8.4-3.3v4.3c0,4.2-0.1,4.6-2.5,9.6c-2,4.1-3.1,5.8-4.8,7.2c-1.6,1.3-2.6,2.6-3.2,4.5c-0.8,2.3-1.1,2.6-2.7,2.9c-1,0.2-2.2,0.5-2.6,0.8c-0.5,0.2-1.4,3-2.3,6.7l-1.6,6.3l-3.5,0.5l-3.5,0.5l-1.9-2.2c-1.5-1.7-2.1-2.1-2.9-1.9c-1.2,0.4-1.5,1.2-2,6.9c-0.3,3.1-1,5.4-4.7,13.9c-2.4,5.6-4.9,11.3-5.6,12.7c-1.2,2.3-1.2,2.6-0.5,3.3c1,1.1,1.1,3.3,0.2,4.8c-0.3,0.6-1.5,2.4-2.6,3.9c-1.9,2.5-2.2,2.7-3.8,2.4c-1.4-0.3-2.1,0-4.3,1.6c-2.4,1.7-2.7,1.8-4.5,1.3c-1.1-0.3-2.1-0.6-2.3-0.6s-1,1.9-2,4.1l-1.7,4.1l-3.4,1.3l-3.4,1.2l-2.3-1.1l-2.3-1.1l-3.8,2c-4.2,2.2-4.9,2.3-8.7,1.3c-2-0.5-3.1-1.2-4.6-2.9c-1.1-1.2-2.7-3-3.5-4l-1.6-1.7L36.2,167c-11.6,12.7-11.6,12.8-12,15.5l-0.3,2.3l-7.1,4.1c-3.9,2.3-7,4.2-6.9,4.3s7.4-0.6,16.1-1.6s18.3-1.8,21.2-1.8c5.2,0,5.4,0,7.8-1.8l2.4-1.8l6.4,0.3c6.1,0.3,7.9,0.1,39.2-4.4l32.8-4.6l51.3-11.1c28.2-6.1,51.4-11.2,51.6-11.3c0.2-0.2-5.5-9.9-6.1-10.3c-0.2-0.1-2.6,0.5-5.3,1.2l-4.9,1.4l-1.3-1.3l-1.3-1.4l2.1-1.2c2.1-1.2,2.1-1.3,1.8-3.3c-0.2-1.3-1-2.8-2.1-4.1c-1-1.1-1.8-2.4-1.8-3c0-0.6-0.8-1.5-2.1-2.4c-1.6-1.1-2.1-1.7-2.1-2.9c0-1.5,0.1-1.5,2.3-1.3c2.1,0.2,2.4,0.1,2.7-1c0.2-0.9,0-1.4-0.8-2c-0.9-0.6-1.1-1.1-0.8-2.3c0.3-1.2,0.1-1.8-0.8-2.7c-1-1.1-1.1-1.5-0.8-5.5c0.4-5.1,0-5.7-4.1-6.3c-2-0.3-3-0.8-4.4-2.2c-1.6-1.5-2.6-1.9-7.5-3c-6.4-1.3-15.2-4.5-17.5-6.2c-2.8-2.1-2.8-6.9-0.2-9.8c0.6-0.6,1.4-2.5,1.8-4.3c0.7-3.1,0.7-3.2-0.5-4.7c-0.9-1.2-2.4-2-6.1-3.3c-2.6-1-5.8-2.1-7-2.6l-2.3-0.8l0.2-2.4l0.2-2.4l-3.1-1.1c-1.7-0.6-3.2-1.1-3.4-1.1C163.3,62.7,163.2,63.7,163.2,64.9z"/><path fill="#000000" d="M239.9,99.4c-5.3,2.1-5.4,2.1-5.1,3.7c0.3,1.8-1,7.3-2.9,11.9c-0.8,2.1-1.3,4.8-1.6,7.9c-0.3,4.4-0.3,5.1,1,8.9l1.3,4.1l2-1.9c2.8-2.8,5.2-9.8,4.6-13.4c-0.5-3-0.1-9.8,0.7-11.3c0.3-0.6,1.5-2.3,2.7-3.9c1.7-2.3,3.3-6.1,3.3-7.9C246,97,245.4,97.2,239.9,99.4z"/></g></g></g>
</svg>