<?xml version="1.0" encoding="utf-8"?>
<!-- Svg Vector Icons : http://www.onlinewebfonts.com/icon -->
<!DOCTYPE svg PUBLIC "-//W3C//DTD SVG 1.1//EN" "http://www.w3.org/Graphics/SVG/1.1/DTD/svg11.dtd">
<svg version="1.1" xmlns="http://www.w3.org/2000/svg" xmlns:xlink="http://www.w3.org/1999/xlink" x="0px" y="0px" viewBox="0 0 256 256" enable-background="new 0 0 256 256" xml:space="preserve">
<metadata> Svg Vector Icons : http://www.onlinewebfonts.com/icon </metadata>
<g><g><g><path fill="#000000" d="M79.9,42.9c-0.6,0.6-1.1,1.3-1.1,1.5c0,0.3,0.9,2.5,2.1,4.9c2.7,5.9,3.8,13,2.4,15.9c-1,2.1-1.1,6.3-0.3,8.2c0.5,1,0.4,1.7-0.2,3.2c-0.6,1.5-0.7,2.6-0.3,5.3c0.3,1.8,0.8,3.7,1.2,4.2c1,1.1,0.9,3.5,0,3.8c-1.2,0.5-2.3-0.7-3.9-4.4c-0.9-1.8-2.2-4-2.9-4.8c-1.1-1.1-1.4-2-1.4-3.8c0-2.4,0-2.4,2-2.9l2.1-0.6l-0.5-2.7C78.9,69.2,78.4,68,78,68c-0.4,0-1.9,0.9-3.4,2c-2.6,1.8-2.8,2.1-3,4.5c-0.3,2.4-0.4,2.5-2,3c-2.3,0.6-7.9-0.8-12.1-2.9c-1.7-0.9-4.5-1.8-6.3-2.3c-1.8-0.4-5.4-1.6-8-2.8c-8.4-3.8-11.8-6.2-17.2-12c-3.5-3.7-5.6-5.5-6.8-5.8c-1-0.3-1.9-0.3-2.1-0.1c-0.2,0.2-1.3,4.5-2.5,9.5l-2.2,9.2l1.7,3.1c1.7,3.1,1.7,3.1,1.9,11.1c0.2,5.8-0.1,8.8-0.6,11.2c-0.7,3.2-0.7,3.5,0.8,10.5l1.5,7.2l2.6,2.6c1.4,1.5,2.4,2.8,2.2,2.9c-0.2,0.1-1.8,0.4-3.6,0.6c-4.2,0.5-4.7,1.1-4.7,5c0,3.1,0,3.2,2,4.2c2.4,1.3,2.7,2.9,1.1,6.7c-1.1,2.8-1.8,3.3-4.9,3.3c-1.4,0-1.6,0.2-2,1.6c-0.7,3.5-0.4,4.9,1.8,7.6c2.3,2.9,2.5,3,4.2,1.8c1-0.6,1.7-0.7,4.5-0.2c4.8,0.8,8.2,2.3,8.5,4c0.2,0.7,0.4,1.6,0.5,1.9c0.1,0.3,1.7,0.9,3.7,1.2c1.9,0.4,3.8,0.8,4.3,1.1c0.5,0.2,1.7,2.1,2.7,4l1.9,3.6l0,9.1l-0.1,9l4.8,3.7l4.7,3.7l5.8,0.4c5.6,0.4,5.9,0.3,7.1-0.8c1.1-1,1.6-1.1,4.2-0.9c7.1,0.8,19.3,4.5,22.8,7c2.1,1.5,2.5,1.5,8.6,1.7c5.8,0.2,6.7,0.4,9,1.6c3.7,2,8.9,2,14.7-0.2c5.1-1.9,5.9-1.9,7.6-0.3l1.4,1.3l12.5-0.6c6.9-0.3,13.9-0.5,15.6-0.3c5.6,0.6,30.7,6.4,44.3,10.3c7.4,2.2,13.7,3.8,13.9,3.7c0.2-0.2,0.6-4.4,0.7-9.4c0.3-8.2,0.5-10.5,2.9-22.7c6.4-32.7,12.8-61.3,17.1-76c5.1-17.3,6.2-21.4,5.8-21.7c-0.1-0.1-7-1.7-15.3-3.6c-24.8-5.6-61-14.7-82.5-20.7c-11.1-3.1-24.2-6.6-29.1-7.7c-9.7-2.2-24.5-6.3-31.7-8.7C81.8,41.6,81.3,41.6,79.9,42.9z"/><path fill="#000000" d="M69,54.4c-1.4,1.5-1.8,1.6-2.2,0.3c-0.2-0.8-0.7-1-2.4-1h-2.1l0.4,1.9c0.5,2.8,1.1,4.1,2.6,6.1c1.5,2,2.5,1.7,3-0.9c0.2-0.8,0.4-1.5,0.5-1.5c0.1,0,0.9,0.3,1.7,0.6l1.6,0.6l-1.5,2.4c-0.8,1.4-1.5,2.6-1.5,2.8c0,0.5,2.3,0.4,3.7-0.2c1.6-0.6,2.7-3.8,1.8-5.2c-0.5-0.8-0.4-1.2,0.9-2.5c1.4-1.4,1.4-1.6,0.8-3.1c-0.6-1.4-0.8-1.5-3.3-1.5C70.7,53.2,70,53.4,69,54.4z"/></g></g></g>
</svg>