<?xml version="1.0" encoding="utf-8"?>
<!-- Svg Vector Icons : http://www.onlinewebfonts.com/icon -->
<!DOCTYPE svg PUBLIC "-//W3C//DTD SVG 1.1//EN" "http://www.w3.org/Graphics/SVG/1.1/DTD/svg11.dtd">
<svg version="1.1" xmlns="http://www.w3.org/2000/svg" xmlns:xlink="http://www.w3.org/1999/xlink" x="0px" y="0px" viewBox="0 0 256 256" enable-background="new 0 0 256 256" xml:space="preserve">
<metadata> Svg Vector Icons : http://www.onlinewebfonts.com/icon </metadata>
<g><g><g><path fill="#000000" d="M90.2,12.4c-4.2,4.6-4.3,4.8-2.4,10c1.5,4.3,1.6,4.7,1.6,12.8c0,4.5-0.3,10.3-0.6,12.9c-0.3,2.5-0.8,9.4-1.2,15.2L87,73.8l-3.4,5.9c-4,6.8-11,14.7-16.1,18.4l-3.3,2.4L61,99.8c-3.1-0.7-3.1-0.7-4.7,0.8c-0.8,0.8-3.2,3.9-5.2,6.9c-2,3-4.4,6.4-5.4,7.7c-1.5,2.1-1.7,2.6-1.7,6c0,3.3,0.2,4.1,1.5,6.3c1.8,2.8,1.8,3.1,1,5.7c-0.5,1.5-1.1,2.2-3,3.3c-1.3,0.8-2.6,1.4-2.7,1.4c-0.2,0-0.7-1.2-1.1-2.7c-0.6-1.9-1.3-3.1-2.6-4.1c-2.1-1.6-2.4-1.6-4.4-0.6c-1.3,0.7-1.6,1.4-3.1,7.2c-1.4,5.6-1.6,7.4-1.6,13.3v6.8l-2.5,2.5c-2.5,2.4-2.5,2.5-2.9,6.5l-0.3,4.1l-2.9,1.2c-2.1,0.9-3.8,1.3-6.2,1.3H10l0.4,8.1c0.5,10.7,1.1,11.9,6.7,15.1l4,2.3l0.9,3.3c0.7,2.5,1.8,4.4,4.7,8.2c7.2,9.3,12,14.3,17.5,17.7c4.5,2.8,5.3,3.6,8.4,7.9c5.1,7.2,6.5,8.2,11.6,9.6c4.3,1.1,4.4,1.1,8.2,0.2c3.6-0.8,4.2-1.1,7.4-4.2c1.9-1.8,3.6-3.3,3.8-3.3s1.8,0.8,3.4,1.9l3,1.9l6.7-1.5c3.8-0.8,7.1-1.7,7.4-2.1c0.4-0.3,1.6-3.3,2.8-6.7c1.2-3.4,2.4-6.3,2.6-6.5c0.2-0.2,2.1,0.3,4.2,1l3.9,1.3l4.9-3.7c4.7-3.6,4.9-3.7,6.9-3.2c2.4,0.6,2.9,0.3,6.1-3c2.5-2.5,2.5-2.6,2.8-6.4c0.2-3.4,0.1-4.2-0.9-6.1l-1.2-2.2l7.5-16.2c9.6-20.6,13.5-32.4,14.4-42.3c0.3-3.4,0.6-6.6,0.7-6.9c0.2-0.4,1.2-0.6,2.8-0.6h2.6l2.4,4.1c3.1,5.4,5.3,6.7,10.5,6.7c2,0,3.7-0.1,3.7-0.3c0-0.1,0.7-3.7,1.6-7.8c0.9-4.2,1.9-9.9,2.2-12.8l0.6-5.1l3.6-0.4c7.3-0.8,6.7-0.5,7.4-4.2l0.7-3.3l4.6-3.7c3.8-3,4.8-4.1,5.8-6.4c0.7-1.5,2.2-4.5,3.4-6.5c3.2-5.5,4.1-9.5,4.1-18.6c0-4.4,0.2-7.6,0.5-7.6c1.6,0,14,5.4,21.3,9.3c4.8,2.6,8.8,4.5,9,4.3c0.2-0.2,0.4-3.2,0.5-6.9l0.2-6.5l-5-4.6c-3.1-2.8-6.3-5.3-8.4-6.3c-1.9-0.9-4.3-2.4-5.4-3.3l-2-1.5l-2.8,0.8c-2.9,0.8-6.5,3.2-13,8.5l-3.8,3.1l-4.4,0.4c-3.7,0.3-4.7,0.2-6.1-0.6c-0.9-0.5-1.8-0.8-1.9-0.7c-0.1,0.1-1.3,2-2.8,4.1c-3.3,4.9-6.5,8-8.9,8.5c-5.3,1-5.4,1.1-9.1,6.1c-2.7,3.6-4.8,5.7-8.8,8.8c-4.9,3.8-5.3,3.9-5.5,2.8c-0.2-0.7-1-5.6-1.8-11c-1.5-9.7-4.2-22.7-4.9-23.3c-0.3-0.3-21.8,2.5-38.1,5c-5.4,0.8-9.8,1.4-9.9,1.4c0-0.1-2.3-12.9-5-28.5c-2.7-15.6-5.1-29-5.4-29.8l-0.4-1.5L90.2,12.4z"/></g></g></g>
</svg>