<?xml version="1.0" encoding="utf-8"?>
<!-- Svg Vector Icons : http://www.onlinewebfonts.com/icon -->
<!DOCTYPE svg PUBLIC "-//W3C//DTD SVG 1.1//EN" "http://www.w3.org/Graphics/SVG/1.1/DTD/svg11.dtd">
<svg version="1.1" xmlns="http://www.w3.org/2000/svg" xmlns:xlink="http://www.w3.org/1999/xlink" x="0px" y="0px" viewBox="0 0 256 256" enable-background="new 0 0 256 256" xml:space="preserve">
<metadata> Svg Vector Icons : http://www.onlinewebfonts.com/icon </metadata>
<g><g><g><path fill="#000000" d="M85.2,4.6c-1.2,0.4-4,2-6.2,3.5c-5,3.2-21.6,10.6-26.6,11.7c-4.6,1-10.7,0.3-12.6-1.6c-0.7-0.6-1.3-1.1-1.4-0.9c-0.1,0.1-1.4,1.8-2.9,3.7l-2.6,3.5l-0.2,14.2L32.5,53l-1.4,2.2c-0.9,1.2-4.4,4.3-8.5,7.4l-7.1,5.3L12.9,75c-1.5,4-2.8,7.3-2.9,7.6c-0.1,0.2,0.5,0.7,1.3,1.2c0.9,0.5,2.6,1.9,4,3.2c2.4,2.2,2.6,2.5,3.2,6.4l0.6,4l-2.3,3.8l-2.2,3.8v6.2c0,3.4,0.3,9.6,0.6,13.7l0.5,7.6l3.9,3.9l3.8,3.9h4.5h4.4l2.3,4l2.3,4l4.4,0.6l4.4,0.6L51,157l5.1,7.3l9.2,5.4c8.4,4.9,9.4,5.7,11.7,8.7l2.5,3.4l1.4,10.7c0.8,5.9,1.7,12.1,2.1,13.9c0.6,3,0.9,3.3,3.6,5.3c4.3,3,4.5,4.3,1,10.1l-2.8,4.5l0.4,4.2c0.3,3.8,0.6,4.4,3.6,9.1c2.9,4.5,3.5,5.1,6.3,6.4c1.7,0.8,4.9,1.8,7.1,2.2c3.2,0.5,4.4,1,5.7,2.3l1.7,1.6h14c20.9,0,74.4-3.2,90.4-5.5c6.7-0.9,12.3-1.9,12.5-2.2c0.2-0.3,0.5-2.1,0.7-3.9c0.3-3,0.1-3.9-1.7-9.2c-1.7-4.9-2.3-7.2-2.8-13.2c-0.5-5.7-1-8.1-2.2-11l-1.6-3.7l1.9-6.2c1-3.5,1.9-6.5,1.9-6.9c0-0.3,1-2.5,2.2-4.9l2.2-4.2l-1.7-9c-1.9-10.6-1.8-11.4,2.2-16.6c2.5-3.2,2.6-3.5,2.6-7c0-2.4-0.3-4.1-0.9-5.1c-0.9-1.3-0.9-1.8,0-5.2c0.5-2.1,1.1-5.5,1.4-7.5c0.4-2.9,1.6-5.9,4.9-12.7c2.3-4.9,5.6-12.2,7.3-16.2c2.6-6.2,3.1-7.8,3.2-10.9c0-2-0.1-3.8-0.3-3.9c-0.9-1-2.9,1.5-11.3,14c-6,8.9-10,14.4-11.5,15.6c-1.7,1.4-2.6,2.8-3.5,5.1c-0.9,2.4-1.5,3.3-3,4.1c-1,0.5-2.5,2.1-3.3,3.5c-1.4,2.4-1.6,2.5-3.2,2.2c-1.3-0.3-1.8-0.7-2.2-2.4c-0.5-1.8-0.2-2.6,3.6-10.6c2.3-4.8,4.2-8.9,4.2-9.1c0-0.3,1.1-1.6,2.5-2.9s3.2-3.7,4-5.4l1.6-3.1l-2.3-1.3c-1.2-0.8-3-2.1-3.9-3c-1.5-1.6-1.6-2.3-3.6-14.7c-1.1-7.2-2.2-13.2-2.4-13.4c-0.2-0.2-2.3-0.9-4.8-1.7c-4.3-1.3-4.4-1.5-6.2-4.4l-1.8-3l-15.8-3.4c-10.3-2.2-17.3-4-20.1-5.2c-8-3.3-23.5-7.2-35-8.8L117.4,38l-5.2-6.7c-2.8-3.7-5.2-6.9-5.3-7c-0.2-0.1-0.5,0.4-0.9,1.2c-0.9,2-3.4,1.9-4.5-0.1c-0.6-1.2-1.5-1.7-4-2.4c-4.5-1.2-6.2-1.1-9,0.5c-2.1,1.2-2.5,1.2-3.5,0.6c-0.6-0.4-1.1-1-1.1-1.3c0-2.4,4.4-10.5,7.7-14L93,7.2l-2.4-1.7C87.9,3.6,88.1,3.6,85.2,4.6z"/></g></g></g>
</svg>