<?xml version="1.0" encoding="utf-8"?>
<!-- Svg Vector Icons : http://www.onlinewebfonts.com/icon -->
<!DOCTYPE svg PUBLIC "-//W3C//DTD SVG 1.1//EN" "http://www.w3.org/Graphics/SVG/1.1/DTD/svg11.dtd">
<svg version="1.1" xmlns="http://www.w3.org/2000/svg" xmlns:xlink="http://www.w3.org/1999/xlink" x="0px" y="0px" viewBox="0 0 256 256" enable-background="new 0 0 256 256" xml:space="preserve">
<metadata> Svg Vector Icons : http://www.onlinewebfonts.com/icon </metadata>
<g><g><g><path fill="#000000" d="M36.4,31.1c-0.2,0.9-0.8,6.1-1.5,11.4C33,56.9,27,94.2,21.2,128c-5.1,29.3-11.7,73.2-11.1,73.7c0.7,0.7,11.1,1.9,36.3,4.4c28.2,2.8,114.3,12.3,158.5,17.6c14.7,1.7,26.9,3.1,27.1,2.9c0.1-0.1,2.2-19.6,4.6-43.3c3.4-33.7,4.7-48.1,5.7-66c0.7-12.6,1.9-31.6,2.6-42.2c0.8-10.6,1.3-19.5,1.1-19.6c-0.2-0.2-5.8-0.7-12.5-1.3c-18.8-1.5-70.2-6.9-88.4-9.2c-15.3-2-62.3-8.7-92.7-13.3c-7.6-1.2-14.2-2.1-14.7-2.1C36.9,29.5,36.6,29.9,36.4,31.1z"/></g></g></g>
</svg>